<mxfile host="app.diagrams.net" agent="Mozilla/5.0 (Windows NT 10.0; Win64; x64) AppleWebKit/537.36 (KHTML, like Gecko) Chrome/128.0.0.0 Safari/537.36" version="24.7.10">
  <diagram name="Page-1" id="2ri7Q_Rrpt5cX8O5kR6u">
    <mxGraphModel dx="3827" dy="2783" grid="1" gridSize="10" guides="1" tooltips="1" connect="1" arrows="1" fold="1" page="1" pageScale="1" pageWidth="827" pageHeight="1169" math="0" shadow="0">
      <root>
        <mxCell id="0" />
        <mxCell id="1" parent="0" />
        <mxCell id="F08eT_BKC8G9qxvc_UNh-7" value="" style="rounded=1;whiteSpace=wrap;html=1;strokeWidth=2;dashed=1;fillColor=none;" vertex="1" parent="1">
          <mxGeometry y="-140" width="440" height="740" as="geometry" />
        </mxCell>
        <mxCell id="4HRBgz9BWrIXSL6cnx4G-1" value="" style="rounded=1;whiteSpace=wrap;html=1;fillColor=#fff2cc;strokeColor=#d6b656;strokeWidth=2;" parent="1" vertex="1">
          <mxGeometry x="10" y="-100" width="420" height="610" as="geometry" />
        </mxCell>
        <mxCell id="4HRBgz9BWrIXSL6cnx4G-2" value="" style="rounded=1;whiteSpace=wrap;html=1;fillColor=#dae8fc;strokeColor=#1E2836;strokeWidth=2;" parent="1" vertex="1">
          <mxGeometry x="20" y="-50" width="400" height="550" as="geometry" />
        </mxCell>
        <mxCell id="4HRBgz9BWrIXSL6cnx4G-3" value="" style="rounded=1;whiteSpace=wrap;html=1;fillColor=#d5e8d4;strokeColor=#000000;strokeWidth=2;" parent="1" vertex="1">
          <mxGeometry x="30" width="380" height="490" as="geometry" />
        </mxCell>
        <mxCell id="4HRBgz9BWrIXSL6cnx4G-4" value="" style="rounded=1;whiteSpace=wrap;html=1;fillColor=#e1d5e7;strokeColor=#000000;strokeWidth=2;" parent="1" vertex="1">
          <mxGeometry x="40" y="50" width="360" height="430" as="geometry" />
        </mxCell>
        <mxCell id="4HRBgz9BWrIXSL6cnx4G-5" style="edgeStyle=orthogonalEdgeStyle;rounded=0;orthogonalLoop=1;jettySize=auto;html=1;exitX=0.25;exitY=1;exitDx=0;exitDy=0;entryX=0.25;entryY=0;entryDx=0;entryDy=0;strokeWidth=2;" parent="1" source="4HRBgz9BWrIXSL6cnx4G-6" target="4HRBgz9BWrIXSL6cnx4G-9" edge="1">
          <mxGeometry relative="1" as="geometry" />
        </mxCell>
        <mxCell id="4HRBgz9BWrIXSL6cnx4G-6" value="" style="rounded=1;whiteSpace=wrap;html=1;fillColor=#ffe6cc;strokeColor=#171100;strokeWidth=2;" parent="1" vertex="1">
          <mxGeometry x="50" y="90" width="340" height="200" as="geometry" />
        </mxCell>
        <mxCell id="4HRBgz9BWrIXSL6cnx4G-7" style="edgeStyle=orthogonalEdgeStyle;rounded=0;orthogonalLoop=1;jettySize=auto;html=1;exitX=0.25;exitY=1;exitDx=0;exitDy=0;entryX=0.198;entryY=0.01;entryDx=0;entryDy=0;strokeWidth=2;entryPerimeter=0;" parent="1" source="4HRBgz9BWrIXSL6cnx4G-9" target="4HRBgz9BWrIXSL6cnx4G-11" edge="1">
          <mxGeometry relative="1" as="geometry" />
        </mxCell>
        <mxCell id="4HRBgz9BWrIXSL6cnx4G-8" style="edgeStyle=orthogonalEdgeStyle;rounded=0;orthogonalLoop=1;jettySize=auto;html=1;exitX=0.75;exitY=0;exitDx=0;exitDy=0;entryX=0.75;entryY=1;entryDx=0;entryDy=0;strokeWidth=2;" parent="1" source="4HRBgz9BWrIXSL6cnx4G-9" target="4HRBgz9BWrIXSL6cnx4G-6" edge="1">
          <mxGeometry relative="1" as="geometry" />
        </mxCell>
        <mxCell id="4HRBgz9BWrIXSL6cnx4G-9" value="" style="rounded=1;whiteSpace=wrap;html=1;strokeWidth=2;fillColor=#fff2cc;strokeColor=#000000;" parent="1" vertex="1">
          <mxGeometry x="50" y="340" width="340" height="100" as="geometry" />
        </mxCell>
        <mxCell id="4HRBgz9BWrIXSL6cnx4G-10" style="edgeStyle=orthogonalEdgeStyle;rounded=0;orthogonalLoop=1;jettySize=auto;html=1;exitX=0.804;exitY=0.002;exitDx=0;exitDy=0;entryX=0.75;entryY=1;entryDx=0;entryDy=0;strokeWidth=2;exitPerimeter=0;" parent="1" source="4HRBgz9BWrIXSL6cnx4G-11" target="4HRBgz9BWrIXSL6cnx4G-9" edge="1">
          <mxGeometry relative="1" as="geometry" />
        </mxCell>
        <mxCell id="4HRBgz9BWrIXSL6cnx4G-27" style="edgeStyle=orthogonalEdgeStyle;rounded=0;orthogonalLoop=1;jettySize=auto;html=1;exitX=0.25;exitY=1;exitDx=0;exitDy=0;entryX=0.25;entryY=0;entryDx=0;entryDy=0;strokeWidth=2;" parent="1" source="4HRBgz9BWrIXSL6cnx4G-11" target="4HRBgz9BWrIXSL6cnx4G-26" edge="1">
          <mxGeometry relative="1" as="geometry" />
        </mxCell>
        <mxCell id="4HRBgz9BWrIXSL6cnx4G-11" value="&lt;font style=&quot;font-size: 20px;&quot;&gt;&lt;b&gt;Services&lt;/b&gt;&lt;/font&gt;" style="rounded=1;whiteSpace=wrap;html=1;strokeWidth=2;fillColor=#f8cecc;strokeColor=#000000;" parent="1" vertex="1">
          <mxGeometry x="80" y="525" width="280" height="60" as="geometry" />
        </mxCell>
        <mxCell id="4HRBgz9BWrIXSL6cnx4G-12" value="&lt;font style=&quot;font-size: 20px;&quot;&gt;&lt;b&gt;Presentational&lt;/b&gt;&lt;/font&gt;&lt;div style=&quot;font-size: 20px;&quot;&gt;&lt;font style=&quot;font-size: 20px;&quot;&gt;&lt;b&gt;Component&lt;/b&gt;&lt;/font&gt;&lt;/div&gt;" style="text;html=1;align=center;verticalAlign=middle;whiteSpace=wrap;rounded=0;" parent="1" vertex="1">
          <mxGeometry x="88" y="104" width="130" height="40" as="geometry" />
        </mxCell>
        <mxCell id="4HRBgz9BWrIXSL6cnx4G-13" value="" style="rounded=1;whiteSpace=wrap;html=1;fillColor=#ffe6cc;strokeColor=#000000;strokeWidth=2;" parent="1" vertex="1">
          <mxGeometry x="60" y="160" width="150" height="120" as="geometry" />
        </mxCell>
        <mxCell id="4HRBgz9BWrIXSL6cnx4G-15" value="&lt;br&gt;&lt;div style=&quot;font-size: 20px;&quot;&gt;&lt;br&gt;&lt;/div&gt;" style="rounded=1;whiteSpace=wrap;html=1;fillColor=#ffe6cc;strokeColor=#0A0700;strokeWidth=2;" parent="1" vertex="1">
          <mxGeometry x="218" y="160" width="162" height="120" as="geometry" />
        </mxCell>
        <mxCell id="4HRBgz9BWrIXSL6cnx4G-16" value="&lt;font style=&quot;font-size: 20px;&quot;&gt;&lt;b&gt;Custom Hook&lt;/b&gt;&lt;/font&gt;&lt;div style=&quot;font-size: 20px;&quot;&gt;&lt;font style=&quot;font-size: 20px;&quot;&gt;&lt;b&gt;Component&lt;/b&gt;&lt;/font&gt;&lt;/div&gt;" style="text;html=1;align=center;verticalAlign=middle;whiteSpace=wrap;rounded=0;" parent="1" vertex="1">
          <mxGeometry x="70" y="350" width="140" height="40" as="geometry" />
        </mxCell>
        <mxCell id="4HRBgz9BWrIXSL6cnx4G-17" value="&lt;font style=&quot;font-size: 20px;&quot;&gt;&lt;b&gt;State&lt;/b&gt;&lt;/font&gt;" style="rounded=1;whiteSpace=wrap;html=1;strokeWidth=2;fillColor=#f5f5f5;fontColor=#333333;strokeColor=#666666;" parent="1" vertex="1">
          <mxGeometry x="210" y="385" width="95" height="40" as="geometry" />
        </mxCell>
        <mxCell id="4HRBgz9BWrIXSL6cnx4G-18" value="&lt;font style=&quot;font-size: 20px;&quot;&gt;&lt;b&gt;Event&lt;/b&gt;&lt;/font&gt;" style="text;html=1;align=center;verticalAlign=middle;resizable=0;points=[];autosize=1;strokeColor=none;fillColor=none;" parent="1" vertex="1">
          <mxGeometry x="60" y="290" width="80" height="40" as="geometry" />
        </mxCell>
        <mxCell id="4HRBgz9BWrIXSL6cnx4G-19" value="&lt;b&gt;&lt;font style=&quot;font-size: 20px;&quot;&gt;State&lt;/font&gt;&lt;/b&gt;" style="text;html=1;align=center;verticalAlign=middle;resizable=0;points=[];autosize=1;strokeColor=none;fillColor=none;" parent="1" vertex="1">
          <mxGeometry x="235" y="290" width="70" height="40" as="geometry" />
        </mxCell>
        <mxCell id="4HRBgz9BWrIXSL6cnx4G-20" value="&lt;font style=&quot;font-size: 20px;&quot;&gt;&lt;b&gt;React Router&lt;/b&gt;&lt;/font&gt;" style="text;html=1;align=center;verticalAlign=middle;whiteSpace=wrap;rounded=0;" parent="1" vertex="1">
          <mxGeometry x="80" y="60" width="130" height="30" as="geometry" />
        </mxCell>
        <mxCell id="4HRBgz9BWrIXSL6cnx4G-21" value="&lt;font style=&quot;font-size: 20px;&quot;&gt;&lt;b&gt;App Component&lt;/b&gt;&lt;/font&gt;" style="text;html=1;align=center;verticalAlign=middle;whiteSpace=wrap;rounded=0;" parent="1" vertex="1">
          <mxGeometry x="60" y="10" width="170" height="30" as="geometry" />
        </mxCell>
        <mxCell id="4HRBgz9BWrIXSL6cnx4G-22" value="&lt;font size=&quot;1&quot; style=&quot;&quot;&gt;&lt;b style=&quot;font-size: 20px;&quot;&gt;AuthnContainer&lt;/b&gt;&lt;/font&gt;" style="text;html=1;align=center;verticalAlign=middle;whiteSpace=wrap;rounded=0;" parent="1" vertex="1">
          <mxGeometry x="80" y="-40" width="110" height="30" as="geometry" />
        </mxCell>
        <mxCell id="4HRBgz9BWrIXSL6cnx4G-23" value="&lt;font size=&quot;1&quot; style=&quot;&quot;&gt;&lt;b style=&quot;font-size: 20px;&quot;&gt;I18nextProvider&lt;/b&gt;&lt;/font&gt;" style="text;html=1;align=center;verticalAlign=middle;whiteSpace=wrap;rounded=0;" parent="1" vertex="1">
          <mxGeometry x="80" y="-90" width="110" height="30" as="geometry" />
        </mxCell>
        <mxCell id="4HRBgz9BWrIXSL6cnx4G-28" style="edgeStyle=orthogonalEdgeStyle;rounded=0;orthogonalLoop=1;jettySize=auto;html=1;exitX=0.75;exitY=0;exitDx=0;exitDy=0;entryX=0.75;entryY=1;entryDx=0;entryDy=0;strokeWidth=2;" parent="1" source="4HRBgz9BWrIXSL6cnx4G-26" target="4HRBgz9BWrIXSL6cnx4G-11" edge="1">
          <mxGeometry relative="1" as="geometry" />
        </mxCell>
        <mxCell id="4HRBgz9BWrIXSL6cnx4G-26" value="&lt;span style=&quot;font-size: 20px;&quot;&gt;&lt;b&gt;Dadiva IPO API&lt;/b&gt;&lt;/span&gt;" style="rounded=1;whiteSpace=wrap;html=1;strokeWidth=2;fillColor=#dae8fc;strokeColor=#010203;" parent="1" vertex="1">
          <mxGeometry x="80" y="620" width="280" height="60" as="geometry" />
        </mxCell>
        <mxCell id="F08eT_BKC8G9qxvc_UNh-1" value="" style="shape=image;verticalLabelPosition=bottom;labelBackgroundColor=default;verticalAlign=top;aspect=fixed;imageAspect=0;image=data:image/png,iVBORw0KGgoAAAANSUhEUgAAAzQAAAM0CAYAAABtcmd3AAAACXBIWXMAAAsTAAALEwEAmpwYAAAABmJLR0QA/wD/AP+gvaeTAABBP0lEQVR42uzdW4xcZ5kv/MdOnHNCEhICIeEcIDAwECbDwHAYGEsMbHyZq0/y3fZtX33y7XrLOTjK3mx1pC3Rn0bfSK2Rtqa+iXtVmgRQBpyAcdrrrXZwiENIIEBIQg7kfPSp30+uxAMMOdjO6u46/H7SX/L1Ws9bfv5VXbUiAAAAAAAAAAAAAAAAAAAAAAAAAAAAAAAAAAAAAAAAAAAAAAAAAAAAAAAAAAAAAAAAAAAAAAAAAAAAAAAAAAAAAAAAAAAAAAAAAAAAAAAAAAAAAAAAAAAAAAAAAAAAAAAAAAAAAAAAAAAAAAAAAAAAAAAAAAAAAAAAAAAAAAAAAAAAAAAAAAAAAAAAAAAAAAAAAAAAAAAAAAAAAAAAAAAAAAAAAAAAAAAAAAAAAAAAAAAAAAAAAAAAAAAAAAAAAAAAAAAAAAAAAAAAAAAAAAAAAAAAAAAAAAAAAAAAAAAAAAAAAAAAAAAAAAAAAAAAAAAAAAAAAAAAAAAAAAAAAAAAAAAAAAAAAAAAAAAAAAAAAAAAAAAAAAAAAAAAAAAAAAAAAAAAAAAAAAAAAAAAAAAAAAAAAAAAAAAAAAAAAAAAAAAAAAAAAAAAAAAAAAAAAAAAAAAAAAAAAAAAAAAAAAAAAAAAAAAAAAAAAAAAAAAAAAAAAAAAAAAAAAAAAAAAAAAAAAAAAAAAAAAAAAAAAAAAAAAAAAAAAAAAAAAAAAAAAAAAAAAAAAAAAAAAAAAAAAAAAAAAAAAAAAAAAAAAAAAAAAAAAAAAAAAAAAAAAAAAAAAAAAAAAAAAAAAAAAAAAAAAAAAAAAAAAAAAAAAAAAAAAAAAAAAAAAAAAAAAAAAAAAAAAAAAAAAAAAAAAAAAAAAAAAAAAAAAAAAAAAAAAAAAAAAAAAAAAAAAAAAAAAAAAAAAAAAAAAAAAAAAAAAAAAAAAAAAAAAAAAAAAAAAAAAAAAAAgLFSl1vixvJxFwKAibJl4ZLoNPMuBOYKRr/QlKjL/uiVmZgv57kgAIy16o6zI+WtkfLLkXJxQTBXMB6F5kieiF6Zim45wYUBYLwWzrI2OnljpPzIYOE8EjBXMFaF5kjujrp8zcUBYCx0mi9Hynf82cJp8cRcwVgXmlfSK/NxY3m/iwTASKoWLoqUZyPlpddcOi2emCsY80LzSvZFXaajV850sQAYjYWzf1qkXEXKL77uwmnxxFzBxBSaI3ko5sqmwd+KAsAwKmVNpP4VkfJv3nThtHhirmDiCs0rmStNbCufc+EAGCpV/7JI+cdHvXBaPDFXMKGF5pUsRV26UZeLXUAAVtVV/XdFlWci5YPHvHRaPDFXMLGF5kiej7lSxfZyigsJwIqa6a+L1ExFys8c18Jp8cRcgULzJ3kg6rLRxQRgRaRmQ6T8y7e0cFo8MVeg0LxGfhi98kkXFYBlsSV/JFK+uZWF0+KJuQKF5nVyKOoyG91yvosLQCuuufOcqJrpSPlAq0unxdNcmStQaN4gT0ZdNke3nOQiA3Bcqu0nRidvipQfa33htHiaK3MFCs1R5p6oyzdcaACObelc/GqkvGfZFk6Lp7kyV6DQHGNuiW3lUhccgDe0pf/BSLm77AunxdNcmStQaI4j+6Mu03FzOcuFB+DPXLfn9Ei5ipRfWrGl0+JprswVKDTHmcejV6aiW05wAwAmXClropM3Rsq/X9GF0+JprswVKDRvOXNlMbaVL7gJABOq01weKe9clYXT4mmuzBUoNC1lKerSjRvKe90MgAlR7b4wqjwTKR9a1aXT4mmuzBUoNC3mhZgrVXTLqW4KwLgunHtPitRMRcrPrvrCafE0V+YKFJplyu+iLhsHf/sKwPhIzYZI+f6hWTgtnubKXIFCs6zplVtjrnzKDQIYcVsWL43UfG/oFk6Lp7kyV6DQrEAORV1mo1cucKMARky189yomulI+eDQLp0WT3NlrkChWaE8FXXZHDeXk90wgCE3018XnbwpUn58qBdOi6e5Mleg0KzCzzzfG9vKN900gCFV5fWR8l0jsXBaPM2VuQKFZhVzS9xYPu7mAQyJLQuXRMrdkVo4LZ7mylyBQrPK2R91mY65crabCLBKqr1nRMpVpPzySC6dFk9zZa5AoRmCPBG9MhXdcoKbCbBSC2dZG528MVJ+ZGQXTounuTJXoNAMWe6IbeXLbijAMuv0PxspL4z8wmnxNFfmChSaIX1+zXzcWN7vxgK0rFq4KFKejZSXxmbptHiaK3MFCs2Q5sWoy9bolTPdYIC3unD2T4vU3xwpPzdWC6fF01yZK1BoRiAPRV02Rilr3GiA45CaDZHyb8Zy4bR4mitzBQrNCD2/polt5XNuNsBRqvqXRco/HuuF0+JprswVKDQjlqWoy2zcVN7ppgO87sJ5XlTNdKR8cCKWTounuTJXoNCMYJ6PuVLF9nKKmw/wqpn+ukjNVKT8zMQsnBZPc2WuQKEZ8fwyeuUKAwBMvCqvj5TvnriF0+JprswVKDRj8v2aH0SvfNIgABNnS/5IdPJNE7twWjzNlbkChWaMciB6ZSa65XwDAYy9a+48J1LeGinvm/il0+JprswVKDRjliejV6ZieznRYABjpypro5M3RsqPWTgtnubKXIFCM965J+bK1w0HMDZS/yuR8h6LpsXTXJkrUGgmKb0yH3Plg4YEGFlXNhdHyrMWTIunuTJXoNBMbvZHXabj5nKWYQFGxnV7To+Uq0j5JculxdNcmStQaORwHo65sim65QRDAwytUtZE6l8RKT9gqbR4ti7lh82MuQKFZvTTj23lCwYHGDqd5vJI+SeWSYvnMhYa82KuQKEZkyxFXbpxQ3mvAQJWXbX7wqjyTKR8yCJp8VRozBUoNHIseSHmShXdcqpBAla+yOw9KVIzFSk/a4G0eCo05goUGnkr+V3UZePgb9cBVmSxbDZEyvdbHC2eCo25ApSRNn/m+daYK58yVMCy2bJ4aaTmexZGi6dCY64AhWa5cijqMhu9coHhAlpT7Tw3qmY6Uj5oWbR4KjTmClBoViJPRV02x83lZEMGHLeZ/rro5E2R8uOWRIunQmOuAIVm5TNX7o1t5ZsGDThmVV4fKd9lObR4KjTmClBohiG3xI3l4wYOeFNbFi6JlLuWQounQmOuAIVm2LI/6jIdc+Vsgwf8hWrvGZFyFSm/bCG0eCo05gpQaIY5T0SvTEW3nGAAgajK2ujkjZHyIxZBi6dCY64AhWaUckf0ypcMIUywTv+zkfKCBdDiqdCYK0ChGeXn18zHjeX9hhEmSLVwUaQ8GykvWf4sngqNuQIUmnHIi1GXrdErZxpKGOci0z8tUn9zpPycpc/iqdCYK0ChGcc8FHXZGKWsMZwwbstgsyFS/o1lz+Kp0JgrQKGZhOfXNLGtfM6Awhio+pdFyj+25Fk8FRpzBSg0k5alqMts3FTeaVBhJIvMeVE105HyQQuexVOhMVeAQjPJeT7mShXbyykGFkbATH9dpGYqUn7GYmfxVGjMFaDQyB9zX/TKFYYWhliV10fKd1voLJ4KjbkCFBp5/e/X/CDq8gnDC0NkS/5IdPJNFjmLp0Ij5goUGjm6HIhemYluOd8Qwyq65s5zIuWtkfI+S5zFU6ERcwUKjRx7noxemYrt5UTDDCuoKmujkzdGyo9Z3iyeCo2YK1Bo5K3n5zFXvm6gYSWWuv5XIuU9ljaLp0Ij5goUGmk7vTIfc+WDBhuWwZXNxZHyrGXN4qnQiLkChUaWN/ujLtNxcznLgEMLrttzeqRcRcovWdQsngqNmCtQaGTl8nDMlU3RLScYdDgOpayJ1L8iUv6tBc3iiUJjrkChkdVLP7aVLxh2OAad5vJI+ScWM4snCo25AoVGhiNLUZdu3FDea+jhDVS7L4wqz0TKhyxlFk8UGnMFCo0MX16IuVJFt5xq+OFPi8zekyI1U5Hys5YxiycKjbkChUaGP7+LumwcfEcAJn5JazZEyvdbwiyeKDTmChQaGb2feb415sqnHAQm0pbFSyM137N8WTxRaMwVKDQy2jkUdZmNXrnAgWAiVDvPjaqZjpQPWrzEgVBozBUoNDI+eSrqsjluLic7GIylmf666ORNkfLjFi6xeCo05goUGhnf/CK2lW86HIzXpzJ5faT8M4uWWDwVGnMFCo1MTm6JG8vHHRJG2paFSyLlrgVLLJ4KjbkChUYmM/ujLtPRLW9zWBitT2T2nhEpV5Hyy5YrsXgqNOYKFBqRP0SvTEW3nODQMNxFpqyNTt4YKT9iqRKLp0JjrkChEfmv2R298iUHh6HU6X82Ul6wTInFU6ExV6DQiLzZ82vm48byfgeI4fhUZuGiSHk2Ul6ySInFU6ExV6DQiBxtXoy6bI1eOdNBYnWKTP+0SP3NkfJzFiixeCo05goUGpHjzYNRl41RyhoHipVbrJoNkfq/tjiJxVOhMVeg0FjIpZ3MlSa2lc85VCzzpzKXRWp+ZGESi6dCY64AhUaWI0tRl9m4qbzT4aJVV+96e1TNdKR80LIkFk+FZsjze8MCCo2Mfp6PuVLF9nKKQ8ZbMtNfF6mZipSftiSJQqPQDHn2D9542dr37DZQaGSMcl/0yhUOGselyusj9fdakkShUWiGPp18S1QLHzMkoNDI+H6/5gdRl084cByVLfkj0ck3WZJEoVFoRiD3RJW/YThAoZHJyIHolZnolvMdPF7TNXeeEylvjZT3WZJEoVFohjxPDn42vtp7ksEAhUYmL09Gr0zF9nKiA8hAVdZGJ2+MlB+zJIlCo9AMeQ4NHuR79W5vzoFCI1J+HnPl6w7hpC9I/a9EynssSaLQKDQjkB9GtfhJgwAKjcifp1fmY6580GGcMFc2Fw/e5bQgiUKj0Ax/Hhh8igwoNCJvkP1Rl+m4uZzlUI656/acHilXkfJLlmlRaBSaIc/zg9erartHEIBCI3LUeTjmyqbBdyoYL6WsidS/IlL+rSVaFBqFZsizFCl3o+q/x00HhUbkeNOPbeULDuiYqHb9TaT8E8uzKDQKzQgkR9V83s0GhUakjSxFXbpxQ3mvgzqqRWb3hVHlmVd/FcjiLAqNQjPMeSg62V8IgEIjsix5IeZKFd1yqgM7KkVm70mRmqlI+VkLsyg0Cs2QZ19UzXRcu+NMNxgUGpHlzu+iLhsH38VgiBeeZkOk/CuLsig0Cs3Qp9PMR5U/4MaCQiOy0j/zfGtsK3/t8A6ZLYuXRmq+Z0EWhUahGYHcHWnxa24oKDQiq5lDUZfZ2Fbe4RCvsmrnuYM/10j5oOVYFBqFZsjzxODPYbvdE9xMUGhEhiVPRV02x83lZId5pYvM9hMHX6BN+XFLsSg0Cs2Q58DgB0qq/nluIig0IsOaX8S28k0HeqWWmuYfI+WfWYZFoVFoRiD/EVX+KzcPFBqRUcktcWP5uIO9TLYsXDJ42JwlWBQahWbo07938DBfQKERGcHsj7pMR7e8zQFvSbX3jEi5ipRftgCLQqPQDHmeG7xeXX+fP0UGhUZk5POH6JWp6BZf/jzuIlPWRidvjJQfsfiKQsOQ38vDD/CdjasWLnCjQKERGbfsjl75ksN+rGUm/22k5nYLryg0jECh2RXV4t+5QaDQiIz782vm48byfof+TVy5892DdzlTXrLsikLDcBea/oODT5E9cBkUGpEJyotRl63RK2c6/P/1E5n+aZH6m1/9+3NLrig0DHOheSFS3jr4fh+ABVcmNA9GXbyr959LSrMhUv/XlltRaBj6QtNp5qO6/X1uBqDQiBzOXGliW/ncBH8qc1mk5keWWlFoGIFCsxidxS+6CYBCI/KXWYq6zMZN5Z0Tc+6v3vX2qJrpSPmghVYUGoa80PwhUjMV3a5frAQUGpE3yfMxV6rYXk4Z2/M+0183WAxSftoiK6LQDHmh2T9442Vr3zPFAIVG5BhzX/TK+D1dusrrI/X3WmBFFJqhLzSdfEtUCx9zwQGFRuStfb/mB1GXT4z8Gd+SPxKdfJPFVUShGYFCc09U+RsuNKDQiLSXA9ErM9Et54/c2b7mznMGP2ua8j5Lq4hCM+SF5snBz8ZXe09ykQGFRmR58mT0ylRsLycO/ZmuytrBg+ZS86hlVUShGfJCc2jwIN9qzztcXEChEVmZ/DzmyteHd9nofyVS3mNJFVFoRqDQ/DCqxU+6qIBCI7Ia6ZX5mCsfHJpzfGVz8eBdTsupiEIz/IXmgcGnyAAKjciqZ3/UZTpuLmet2vm9bs/pkXIVKb9kMRVRaIa80Dw/eL2qtp/iQgIKjchw5eGYK5sG311ZKaWsidS/IlL+rYVURKEZ8kKzFCl3o+q/xwUEFBqR4U4/euXvl/3MVrv+JlL+iUVURKEZgUKTo2o+78IBCo3I6GQp6tKNG8p72y8yuy+MKs+8+qtAllARhWaYC81D0ckr+8k1oNCISKt5IeZKFdvLW/9b8cPPZUjNVKT8rOVTRKEZ8kKzL6pmOq7dcaaLBSg0IuOR30VdNg6+83Jcy0OzIVL+laVTRKEZ+kLTaeajyh9wkQCFRmQ8sz22lb8+6nO5ZfHSSM33LJsiCs0IFJq7Iy1+zcUBFBqR8c+hqMtsbCuv/0Tsaue5gz/XSPmgRVNEoRnyQvPE4M9hu90TXBhAoRGZrDwVddkc3XLSH4vM9hMHX6BN+XELpohCM+SF5sDgB0qq/nkuCKDQiEx2fhHbyjcjNf8YKf/MYimi0Ay9Tv7u4E9iARSakc36qMtdroO0GgultJr+va8+dNW1UGgAFBr5LzlspqyLXpmKujztmohCI0OU5yLlKq6/7+TBa5XrodAAKDTymoXmiG3l7VGX6ajLQddGFBpZxRx+0OpsXLVwwZ+9RrkuCg2AQiNvWGiO6JVPR11uc31EoZFVyK6oFv/uNV+bXBuFBkChkaMqNH+8jhuiLve7TqLQyAp8T+bB6OQ3fmCr66TQACg0ckyF5rBuOXXwc7x1edb1EoVGliEvRMpbo9p7xpu+HrlWCg2AQiPHXGiOmC/vHjxAsS5LrpsoNNJKOs18VLe/76hfh1wzhQZAoZHjLjRH3Fguj7rsdO1EoZG3kMXoLH7xmF9/XDeFBkChkbdcaA47/DfuddkYdfm9aygKjRxD/hCpmYpu94Tjeu1x/RQaAIVGWik0R3y/nB5zpYq6vOxaikIjb5D9UTXTsbX/trf0muM6KjQACo20WmiO6JUPRV26rqcoNPKX35PJt0S18LFWXmtcT4UGQKGRZSk0R9xYvhp1udN1FQulRMr3RJW/0eprjGuq0AAoNLKsheaw7eXEmCubolcec30VGpnIPBmpvzmqvSe1/vri2io0AAqNLHuhOaJbzo26TEddDrjOCo1MRA5FyrNR7XnHsr2uuMYKDYBCIytWaI6YLx+NunzXtVZoZKzzw6gWP7nsryeus0IDoNDIiheaP96TDdErv3LNFRoZqzwQnbxxxV5HXG+FBkChkVUrNDH4M7STolemoi7PuPYKjYx0XoiUq6i2n7KiryGuu0IDoNDIqhaaI24o74pemYm6HHIPFBoZqSxFyt2o+u9ZldcO11+hAVBoZCgKzRFz5TNRlx3ug0IjI5EcVfP5VX3NcA8UGgCFRoaq0BxWyprolSuiLr91PxQaGco8FJ28KaqydtVfL9wLhQZAoZGhKzRHzJfTYq5UUZeX3BeFRoYi+6JqpqNaOGtoXifcE4UGQKGRoS00f7x3F0ddZt0bhUZWMZ1mPqr8gaF7fXBvFBoAhUaGvtAcMVf+IXrlp+6RQiMrmp9H1fzT0L4uuD8KDYBCIyNTaA47/Df7ddkYdXnUvVJoZFnzRKRmKqrtJw71a4L7pNAAKDQyUoXmj5/WnB112Rp12eeeKTTSag5ElWei6p83Eq8F7pdCA6DQyEgWmiO2lQ9HXb7jvik00kr+I6r8VyP1GuCeKTQACo2MdKH54/1dH3XZ6/4pNHJcuS9S/4qRPPvunUIDoNDIWBSaw2bKuuiVqajL0+6jQiNHlecj5Squv+/kkT337qFCA6DQyNgUmiO2lbdHXaajLgfdT4VGXjNLkfJsVM07R/68u5cKDYBCI2NXaI7olU9HXX7knio08mfZFdXi343NOXc/FRoAhUbGttD88d5viLr82r1VaCY7/QejkzdGKWvG6ny7twoNgEIjY19oDuuWU6Mum6Muz7nHCs2E5cVIeWtUe88Yy7Pt/io0AAqNTEShOWK+vDvqMht1WXKvFZqxT6eZj+r29431mXafFRoAhUYmqtAcMVf+Nupyu/ut0IxpFqOz+MWJOMvutUIDoNDIRBaaww5/l6AuG6Muv3ffFZoxyR8iNVPR7Z4wMefYPVdoABQamdhCc8T3y+kxV6qoy8vuv0IzotkfVTMdW/tvm7jz694rNAAKjUx8oTmiVz4UdemaAYVmtL4nk2+JauFjE3tuzYBCA6DQiELzX8yVf4y63GkWFJohzy8i9f/bxJ9Xc6DQACg0otC8hu3lxJgrm6Iuj5sJhWbI8lSk/uao9p7koCo0Cg2AQiMKzRvrlnOjLtNRlwNmQ6FZ5RyKlGej2vMOB1OhUWgAFBpRaI7NfPlo1OW75kOhWaXvyWyPzq6/dhAVGoUGQKERheatztGG6JVfmROFZoXyQHTyRgdPoVFoAFBoFJr2dMtJ0StTUZdnzItCs0x5IVKuotp+igOn0Cg0ACg0Cs3yuKG8K3plJupyyNwoNC1lKVLuRtV/jwOm0Cg0DLXDD6f2CTIoNArNmOiVv4m67DA7Cs1bTI5O/nsHSqFRaBh61a6/iZR/Yq5AoVFoxu2dql65IuryWzOk0BxjHo5O3hRVWesgKTQKDcNdZHZfGFWeefVXF80VKDQKzViaL6fFXKmiLi+ZJYXmTbIvqmY6qoWzHByFRqFhuIvM3pMiNVOR8jPmChQahWZy5u3iqMuseVJoXvtnmJv5qPIHHBSFRqFh+M9YsyFS/pW5AoVGoZlUc+Ufold+aq4Umlfz86iaf3IwFBqFhqFX9T8anfxdcwUKjUJDDL4bUZeNUZdHFZqJzRODP9eotp/oQCg0Cg3D/X/WznMHfw6b8gFzBQqNQsOfmytnR122Rl32KTQTkwODL9BW/fMcAIVGoWG4i8z2Ewc/UJLy4+YKFBqFhje2rXw46vIdhWbs8x/R6X/CwCs0Cg3Df46af4yUf2auQKFRaDjWmVwfddmr0Ixd7ovUv8KAKzQKDUOvWvzQ4GG+5goUGoWG4zZT1kWvTEVdnlZoRj7PR8pVXH/fyQZboVFoGGrX7Tl98HqV8svmChQahYZ2bCtvj7pMR10OKjQjl6VIeTaq5p0GWaFRaBhqhx8C3ckbI+XfmytQaBQalsd8uSzq8iOFZmSyK6rFvzO4Co1Cw9Cr8t9Gam43V6DQKDSs1LxuiLr8WqEZ1vQfHLzLefjdThQahYZhduXOdw8+RX7l02RzBQqNQsMK6pZToy6boy7PKTRDkxcj5a1R7T3DgCo0Cg1D7Vs7T43U3xwpP2euQKFRaFhd8+XdUZfZqMuSQrOK6TTzUd3+PgOp0Cg0DP+5aDZE6v/aXIFCo9AwXObK30ZdbldoVjy7o2q+ZAAVGoWGodfJn47U/MhcgUIjDK+qrI26bIy6PKLQLHv+EKmZim73BIOn0Cg0DLWrd709qmY6Uj5orkChEYVmNHy/nB5zpYq6vKzQtJ79g8Vga/9tBk2hUWgYajP9dYM3XlJ+2lyBQiMKzWiaL5dEXboKTVvfk8m3RKf5uMFSaBQahl6V10fq7zVXoNCIQjMe5so/Rl1+ptAcd34Rqf/fDJJCo9Aw/EVm14cj5e+YK1BoRKEZP9vLiTFXNkVdHldojjpPDX7WtNp7kgFSaBQahrvI3HH24GfjU95nrkChEYVmvHXLuVGX6ajLAYXmdXNo8KC5as87DIxCo9Aw3EWmrB08yDc1j5orUGgUFYVmssyXj0ZdvqvQ/MX3ZLZHZ9dfGxCFRqFh+MtM/odI/Z+aK0ChUWgmffY3RK/8SqHJDwze5UShUWgYdlc2Fw8+RTZXgEKj0PCqbjkpemUq6vLMBBaaFyLlKqrtpxgEhUahYahV/dMGr1cpv2SuAIVGoeG19MqF0SszUZdDE1BoliLlblT997jxCo1YPIdaKWsi9a+IlH9rrgCFRqHh6IrN30RdfjLGhaYfnfz3brRCIxbPoddZ/EykvMNcAQqNQsPxvCPYK1dEXX47RoXm4ejkTYNfBUKhEYvnMLuq/66o8syrv7porgCFRqHhuM2X02KuVFGXl0a40OyLqpmOauEsN1ShEYvnUDv83KvUTEXKz5grQKFRaGj3jFwcdZkduULTaeajyh9wAxUasXgO/7w2GyLlX5krQKFRaFhOvfKVqMueESg0P4+q+Sc3TKERi+fQq/ofjU7+rrkCFBqFhhX7z7esjbpsjLo8OoSF5onBn2tU2090o1BULJ7D/Vq689zBn8OmfMBcAQqNQsNq+E45J+qyNeqybwgKzYHBF2iv3n2+G4NCY/Ec7iKz/cTBD5Sk/Ji5AhQahYZh0CsfibrctGqFptP8IDr9T7gRKDQWz+EvM4tfjZTvNFeAQqPQMJznaH3UZe8KFpr7Bg+bA4XG4jn8ReZDg4f5mitAoVFoGHIzZV30ylTU5ellLDTPR8pVXH/fyS44Co3Fc6hdt+f0wetVyi+bK0ChUWgYJdvK26Mu01GXgy0WmqVIeTaq5p0uMAqNxXOoHX44cSdvjJR/b64AhUahYZTNl8uiLj9qodA00dn1ORcUhcbiOfQ6zeWR8k5zZa5AoVFoGK8ztiHq8utjLzT9Bwfvch5+txMUGovnMLty57sHnyK/8mmymTJXoNAoNIyd+XJa1GVz1OW5oyg0L0bKW+PaHWe6cCg0Fs+h9q2dp0bqb46UnzVL5goUGoWGySg27466zEZdll6z0HSa+diy6/0uFAqNxXP4Z6zZECnfb4bMFSg0Cg2TaK78bdTl9j8pNLujar7kwqDQWDyHXid/OlK+zeyYK1BoFBomXVXWRq/890jNfx/8G1qbrT3vsFBaPJenKPf/n0j5kLkxV6DQKDQA7Zvpr4vUTEXKT1soLZ7LU2jMi7kChUahAVgOVV4fKd9lkbR4KjTmChQaUWiAESoyuz48+DEJC6TFU6ExV6DQiEIDjE6RuePswc97p/yy5dHiqdCYK1BoRKEBRqTIlLWDB66m5lFLo8VToTFXgEKj0ACjo9N8OVL/p5ZFi6dCY64AhUahAUZHtXBRpDwbKS9ZFC2eCo25AhQahQYYkSLTPy1SriLllyyIFk+FxlwBCo1CA4yGUtZE6l8RKf/GYmjxVGjMFaDQKDTA6OgsfiZS3mEhtHgqNOYKUGgUGmB0XNV/V1R5JlI+ZBm0eCo05gpQaBQaYDTM9NdFaqYi5WcsgRZPhcZcAQqNQgOM0HLYbIiUf2n5s3gqNOYKUGgUGmB0VP2PRso3W/osngqNuQIUGoUGGB3X3HlOVM10pHzAwmfxVGjMFaDQKDTAaKi2nxidvClSfsyiZ/FUaMwVoNAoNMAIlZnFr0bKd1rwLJ4KjbkCFBqFBhilIvOhSLlrsbN4KjTmClBoFBpgdFy35/RIuYqUX7LUWTwVGnMFKDQKDTAaSlkTnbwxUv69Zc7iqdCIYQGFRqEBRkenuTxS3mmJs3gqNGKuQKFRaIDRceXOd0fKs5HykgXO4qnQiLkChUahAUbDt3aeGqm/OVJ+1uJm8VRoxFyBQqPQACO00DUbIuX7LWwWT4VGzBUoNAoNMDo6+dOR8m0WNYunQiPmChQahQYYHVfventUzXSkfNCSZvFUaMyLuQKFRqEBRsNMf12kZipSftpyZvFEoTFXoNAoNMDoqPL6SPkuS5nFE4XGXIFCo9AAI1Rkdn04Os28ZcziiUJjrkChUWiAESoyd5wdKW+NlF+2iFk8UWjMFSg0Cg0wIkWmrI1O3hipedQCZvFEoTFXoNAoNMDo6DRfjtT/qcVLHAaFxlyBQqPQAKOjWrgoUp6NlJcsXWLxVGjMFSg0Cg0wIkWmf1qkXEXKL1q2xOKp0JgrUGgUGmA0lLImUv+KSPk3liyxeCo05goUGoUGGB2dxc9EyjssV2LxVGjMFSg0otDA6Liq/66o8kykfMhiJRZPhcZcgUIjCg2Mhpn+ukjNVKT8jIVKLJ4KjbkChUYUGhihRavZECn/0iIlFk+FxlyBQiMKDYyOqv/RSPlmC5RYPBUacwUKjSg0MDquufOcqJrpSPmA5UksngqNuQKFRhQaGA3V9hOjkzdFyo9ZmsTiqdCYK0ChUWhghMrM4lcj5TstS2LxVGjMFfCnhWZ91OVuhUWhgSEuMh+KlLuWJGk59w0euopCo9DAGJgp66JXpqIuzyguCg0Mjev2nB4pV5HySxYkaTHPD+aq2n6KQ6bQKDQwbubLeVGX6ajLQQVGoYFVU8qa6OSNkfLvLUbSYpYi5dmomnc6ZAqNQgPjX2wui7r8SIlRaGDFdZrLI+WdFiJpOU10dn3OAVNoFBqYNHXZEHX5tTKj0MCyu3Lnuwfvnr/yLrplSFpK/8HBp32HP/VDoVFoYELNl9OiLpujLs8pNEDrvrXz1Ej9zZHys5YgaTEvRspb49odZzpkCo1CA7zihnJR1GU26rKk0ADtLEfNhkj5fsuPtJpOMx9bdr3fAVNoFBrgtdXls1GXBYUGOG6d/OlI+TZLj7Sc3VE1X3LAFBqFBnhzVVkbddkYdXlEoQGO2tW73h5VMx0pH7TwSIv5Q6RmKrrdExwyhUahAY5Nt5wRc6WKurys0ACva6a/brBwpvy0RUdazP5BQd7af5tDptAoNMBbM18uibp0FRrgL1R5faR8lwVH2v2eTL4lOs3HHTCFRqEB2lWX9VGXnyk0QFS7Pjz4crbFRtrNL6La9U0HTKFRaIDlM1PWxVzZFHV5XKGBSSwyd5w9+LnclF+21EiLeWrw897X33eyQ6bQKDTAyuiWc6Mu01GXgwoNTEKRKWsHDzBM+RHLjLSYQ4MHrl61cIFDptAoNMDq2FYujbp8T6GBMdZpvhwp32GJkZZza1TNpxwwhUahAYZDXTZEXe5XaGCMVAsXDd49T3nJAiMt5neDT/tKWeOQKTQKDTBcuuWk6JWpqMuzCg2McpHpnxYpV5HyixYXaTEvDObqWztPdcgUGoUGGG69cmH0ykzU5ZBCAyPk8DvmqX9FpPwbC4u0mMOf8HXjyt3vdcgUGoUGGC03lsujLj9RaGAEdBY/Eyn/2KIiLacfVf8LDphCo9AAo/2Ob69cEXV5QKGBIXRV/11R5ZlI+aAlRVrMw9HJm6LbPcEhU2gUGmA8fL+cHnOlirq8pNDAEJjpr4vUTEXKz1hOpMXsj6qZjmrhLIdMoVFogPFUl4ujLrMKDazm0tJsiJR/aSmRVtNp5mNL/4MOmEKj0ACToVe+EnXZo9DACqr6H42Ub7aMSMv5eaT8dQdMoVFogAlcrsraqMvG6JXHFBpYRtfcec7gz4BSPmARkRbz5ODPFqvtJzpkCo1CA0y275Rzoi5boy77FBpo802D7ScOvpid8mMWEGkxBwY/JHH17vMdMoVGoQH4U73ykajLTQoNtFFmFr8aKd9p8ZCWvyfzg+j0P+GAKTQKDcAbqcv6qMvdCg0cV5H50OAhhhYOaTf3DR66ikIjCg1wlGbKuuiVqajLMwoNHIXr9pweKVeR8kuWDWkxzw/mqtp+ikOm0IhCAxyP+XJe1GU66nJQoYHXcPjhtZ28MVL+vSVDWsxSpDwbVfNOh0yhEYUGaKfYXBa98mOFBv5Ep7k8Ut5puZCW00Rn1+ccMIVGFBpgOdRlQ9TlNwoNE63afeHg3fNX3kW3WEhbeWjwad/hT/1QaEShAZbRfDkt6rI56vKcQsNE+dbOUyP1N0fKz1oopMW8GClvjWt3nOmQKTSi0AAr6YZyUdRlNuqypNAw/otGsyFSvt8iIS3/DPN8bNn1fgcMhUahAVZTXT4bdVlQaBhLVfOpSPk2C4S0nDuiar7kgKHQKDTA0Cx9ZW3UZWPU5RGFhvGY6Z3nRtVMR8oHLQ/SYp6I1ExFt3uCQ4ZCo9AAw6hbzoi5UkVdXlZoGEkz/XWDhTPlpywN0mL2DwpydcfZDhkKjUIDjIL5cknUpavQMFKqvD5SvsuyIO1+TybfEp3m4w4YCo1CA4yiuqyPutyl0DDUtixcMvhytiVBWk3/3qh2fdMBQ6FRaIBRN1PWxVzZFHV5XKFhqBz+85/DP5eb8ssWBGkxTw1+3vv6+052yFBoFBpgnHTLuVGX6ajLQYWG1S0yZe3gAYYpP2IxkBZzaPDA1asWLnDIUGgUGmCcbSuXRl2+p9CwKjrNlwc/mWshkHZz6+AnvkGhUWiACVKXDVGX+xUaVkS1cNHg3fOUlywD0mJ+N/i0r5Q1DhkKjUIDTKJuOSl6ZSrq8qyLwfIUmf5pkXIVKb9oCZAW88Jgrr6181SHDIVGoQGIuKFc5CKwLL790LxPZaTFLEXq/+vgEz9oy+FP+FLzfzlfCg0A/KXDf8647dDe+NYv7rQEyFtMP6r+FxwqWtVZ/Eyk/GPnS6EBgNcvNK9kKf5t38645s6HLANyjHk4OnlTdLsnOFC05qr+u6LKM5HyQWdMoQGAoyk0R/J8/MuTt8aWxZcsBfIm2R9VMx3VwlkOEq2Z6a+L1ExFys84YwoNABxPoTmSh+LbD+6wGMhrptPMx5b+Bx0gWpWaDZHyL50xhQYA2ig0r+T/239H/I+7f2FBkFdzT6T8dQeHVm3JH4mUb3a+FBoAaL/QvJJD8W8v7ogr7/iDRWFi8+Tgz4Cq7Sc6NLTmmjvPGfzZYsoHnDGFBgCWs9AcyVPx/z5+a3T6+ywME5MDgy9mX737fIeF1hwuxod/SCLlx5wxhQYAVrLQvJK5pfvj+vsbS8PYf0/mB1EtftIhod0ys/jVSHmPM6bQAMDqFZoj+ff9i3HtXb+yPIxdfhmpf4XDQasO/4hEyl3nS6EBgOEpNK9kf/zrs7fFlYvPWiJGPs9HylVU209xMGjNdXtOH8xVyn4KXqEBgKEsNEf+DO2J+OdHb4tO30PwRi9LkfJsVM07HQhaU8qa6OSNkfLvnTGFBgCGv9AcyQ2Hfh7/615/Hz86aaKz63MOAq3qNJdHyjudL4UGAEav0Pzn92v2NXH1ngctFkObhwbvnh9+Fx3aUu2+cPBp3yuf+jlnCg0AjHCheSUvxOxTt8aWxectGEOTFyPlrXHtjjMNP6351s5TI/U3R8q+S6fQAMBYFZpXs/RwfPvBHd61XfWfYZ6PLbveb+hpVWo2RMr3O2MKDQCMcaE58v2aA3fF//zFXZaNFc8d0Wm+bNhpVdV8KlK+1flSaABgcgrNKzkU//bijrjqp54Qvvx5IlIzFd3uCQad9orMznOjaqYjZb9oqNAAwEQWmiN/hvZ8/MuTh79f87Llo/XsHyyc1R1nG3BaM9NfNyjIKT/ljCk0AKDQ/PH5Nb+O//1bP+/a2vdk8i3RaT5usGlVlddHyv5cVKEBAIXm9X/mef9iXLf3PovI8aZ/b1S7vmmgadWWhUsGPybhjCk0AKDQHFX2x78+e1tcuftpC8lR57lIuYrr7zvZMNOaau8Zg7lK2Z+EKjQAoNAcc3rlyfjnR2+LTt+Xjl8/hwYPMLxq4QJDTHtFpqwdPHA15UecMYUGABSat/z9mkP3xLfu/anl5C+yEJ3+Zw0vrTo8U4dny/lSaABAoWn7+zX7mrj2Zw9YUvLvBu+el7LG4NKaauGiwad9Hnyr0ACAQrOseTFmn7o1tux+bgKXkxci5a2D7zVAa0Wmf1qk/uZXv4elACg0AKDQrNDPPD8S335wx8S8m3z4F6au3P1eg0qrUrMhUv6NxV+hAQCFZrWy7dDe+J/3/myMF5LFqPpfMKC0qupfFin/2MKv0ACAQjMcWYp/e3FHXLPn0TFaRB4fPI292z3BcNJikTkvqmY6UvbLgQoNACg0Q5jn41+evDW2LL40wgvI/sHCWS2cZShpzUx/3aAgp/yMJV+hAQCFZvi/X/Pb+N+/3Tl635PJt8SWxUsNI62q8vpI+W7LvUIDAArNqOXfD+yO/3H3L0Zg6bgnqvwNQ0irtuSPRCffZKlXaABAoRntHIj/89yP4so7/jCEy8aTg5/LrfaeZABpzTV3njP4ee+U91noxYEAQKEZnzwV//zobdHpHxiCJePQ4AGGV+8+3+DRmqqsHTxwNeXHLPKi0ACg0Ixr5pbuj+t/lVdxwfhhVIufNHC0KvW/EinvscCLQgOAQjMp+fd9TWz92W9XcLF4YPDuObTpyubiwad9FndRaABQaCas0LyS/fGvz94WVy4+u4wLxfORchXV9lMMGa25bs/pg7lK+SVLuyg0ADC5heZIHolvP/yj6PTbfNjgUqTcHbyDDm0pZU2k/hWDT/ws66LQAIBC82fZduju+F/3tvE9hCaq5vOGilZ1mssj5Z9Y0kWhAQCF5o2yFP+2b2dcvefB41geHopO3jT4tSloS7X7wqjyzKu/jmdBF4UGABSao8oL8S9P3hpbFl88iqVhX1TNdFy740yDRHtFZu9JkZqpSPlZi7koNACg0Bxnlh6Obz+449XvxPzlstBp5mPLrvcbIFqVmg2R8v0WclFoAEChaSc37P9pXPfze/5kUbg70uLXDA6t2rJ4aaTmexZxUWgAQKFZjhyK//PCQlx79/8d3e4JhobWXL37/Ej525HyQUu4tJjHHC4AFBp5rTwVddkcN5eTDQ5vyUx/3eCHJFJ+3PItLWb/4Ickqv55DhkACo28fubKvbGtfNPwcFyqvD5SvsvyLa2mk2+JTvNxBwwAhUaOJbfEjcUCwdHZsnDJ4KGrlm9pNf17Bw9dBQCFRo4z+6Mu0zFXzjZMvKZq7xmRchUpv2z5lhbz3GCurr/Pn8ACoNBIK3kiemUqusWPBvBqkSlro5M3RsqPWL6lxRx+0OpsXLVwgUMGAArNcuSO6JUvGawJ1+l/NlJesHxLy1kYzBYAoNAse3plPm4sHrw5aaqFiwbvnr/eA1lFji+/G3zaV8oahwwAFJqVzItRl63RK2catHEvMv3TIvU3v/q9Bgu4tJUXIuWtg+9hAQAKzSrmoaiLd1fHVWo2RMq/sXxLuz/D3MzHlbvf64ABgEIzTM+vaWJb+ZyhGxNV/7JI+ceWb2k5i1H1v+CAAYBCM6xZirrMxk3lnYZvZIvMeVE105HyQcu3tJjHIzVT0e36pUQAUGhGIs/HXKlieznFEI6Imf66wcKZ8jOWb2kx+wcFuVo4yyEDAIVmFHNf9IqnfA+7Kq+PlO+2fEu735PJt8SWxUsdMABQaMbh+zU/iLp8wkAOmS35I9HJN1m+peXcE1X+hgMGAArNuOVA9MpMdMv5BnOVXXPnOYOfy015n+VbWsyTg5/3rvae5JABgEIzznkyemUqtpcTDegKq8rawQMMU37M8i0t5tDggatX7/ZmBQAoNBOVe2KufN2QrpDU/0qkvMfyLS3nh1EtftIBAwCFZnLTK/MxVz5oWJfJlc3Fg3fPLd7Sbh4YfNoHACg0Msj+qMt03Fz8tGtbrttzeqRcRcovWb6lxTw/mKtqu59kBwCFRl4jD8dc2RTd4uF7x6uUNZH6VwzeQbd8S3tZipS7g0/8AACFRt40/dhWvmCAj1GnuTxS/onlW1pOE1XzeQcMABQaObYsRV26cUN5r0F+E9XuC6PKM6/+2pQFXNrKQ9HJmwa/jgcAKDRy3Hkh5koV3XKqgf6vRWbvSZGaqUj5Wcu3tJh9UTXTce2OMx0yAFBopL38LuqycfAdESJSsyFSvt/yLa2m08zHll3vd8AAQKGR5fuZ51tjrnxqYmd6y+KlkZrvWb6l5dwdafFr/tMAAIVGViaHoi6z0SsXTMwsVzvPHfwZUMoHLd/SYp4Y/Nlit+uXBQFAoZFVyFNRl81xczl5bGd4pr9u8MXslB+3fEuL2T/4IYmqf57/KABAoZHVzy9iW/nm2M1vlddHyj+zfEu735PJt0SV/8p/EACg0Mjw5Za4sXx85Od2y8Ilg4cYWr6l1fTvHTx0FQBQaGSosz/qMh3d8raRm9dq7xmRchUpv2z5lhbz3GCurr/vZP8pAIBCI6OTP0SvTEW3DP+XnQ8/uLCTN0bKj1i+pcUcftDqbFy1cIH/DABAoZHRze7olS8N7Yx2+p+NlBcs39JyFgazBQAoNDI2z6+ZjxvL8DwwsFq4aPDuecpLlm9pMb8bfNrnAbQAoNDIWObFqMvW6JUzV6/I9E+L1N/86vcaLODSVl6IlLcOvocFACg0MvZ5MOqy8u9ip2ZDpP6vLd/S7s8wN/NR3f4+L/gAoNDIpGWuNLGtfG7Z57DqXxap+ZHlW1rOYnQWv+iFHgAUGpnsLEVdZuOm8s5lKDLnRdVMR8oHLd/SYh6P1ExFt3uCF3kAUGhEjuT5mCtVbC+nvOW5m+mvGyycKT9j+ZYWs39QkKuFs7y4A4BCI/J6uS965fifpl7l9ZHy3ZZvafd7MvmW2LJ4qRd1AFBoRI72+zU/iLp84qhnbUv+SHTyTZZvaTn3RJW/4cUcABQakePJgeiVmeiW8193xq6585zBz+WmvM/yLS3mycHPe1d7T/JCDgAKjchbzZPRK1OxvZz4n7NVlbWDBxim/JjlW1rMocEDV6/efb4XcABAoZG28/OYK1+P1P9KpLzH8i0t54dRLX7SCzcA8KeFZkPU5ZcWcWk1Fm9pNw8MPu0DAHhNM2Xd4M+F6vKMZVwUGhmiPB8pV1FtP8ULNQDw5m4o7xp8wbsuhyzlotDIKmYpUu5G1X+PF2YA4NjNlc9EXXZYzEWhkVVIjqr5vBdiAOCtKWXN4OGJdfmNBV0UGlmBPBSdvGnw63gAAK2ZL6fFXKmiLi9a1EWhkWXIvqia6bh2x5lecAGA5XNDuSjqMht1WbKwi0IjraTTzEeVP+AFFgBYOdvKl6NXfmppF4VG3kLujrT4NS+oAMDqOPw37nXZGHV51PIuCo0cQ56I1ExFt3uCF1IAYPXNlbOjLlujLi9b4kWhkTfIgajyTFT987xwAgDDZ1v5cPTKvEVeFBp5jfxHVPmvvFACAMOvLuujLndZ6MUSL5H690bqX+GFEQAYLTNlXfTKVNTlaYu9QiMTmeci5Squv+9kL4gAwOjaVt4edZmOuhy04Cs0MhE5FCnPxlULF3gBBADGR698OupymyVfoZGxzkJ0+p/1ggcAjK+6bIi63G/ZV2hkrPK76OSNUcoaL3IAwPjrllOjLpujLs9a+hUaGem8EClvjWrvGV7YAIDJM1/eHXWZjbosWf4VGhmxdJr5qG5/nxcyAIAby+VRl50KgEIjI5HF6Cx+0QsXAMCfOvy393XZGHX5vSKg0MhQ5g+Rmqnodk/wggUA8Hq+X06PuVJFXV5SCBQaGYrsj6qZjq39t3mBAgA4Wr3yoahLVylQaGQ1vyeTb4lq4WNekAAAjteN5atRlzuVA4VGVjT3RJW/4QUIAKAN28uJMVc2Ra88piQoNLKseTJSf3NUe0/ywgMA0LbvlHOiLtNRlwPKgkIjreZQpDwb1Z53eKEBAFhu8+Wj0Ss3KwwKjbSSH0a1+EkvLAAAK60uG6Iuv1QcFBo5rjwQnbzRCwkAwGqaKeuiV6aiLs8oEAqNHFWej5SrqLaf4gUEAGBY3FDeFb0yE3U5pEgoNPKaWYqUu1H13+MFAwBgWM2Vz0RddigTCo38WXJUzee9QAAAjIJS1kSvXBF1+Y1SodBMeB6KTt4UVVnrhQEAYNTMl9NirlRRl5eUC4VmwrIvqmY6rt1xphcCAIBRd0O5KOoyG3VZUjIUmrFPp5mPKn/AwQcAGDfbypejV36qaCg0Y5q7Iy1+zUEHABhnh79LUJeNUZdHFQ6FZkzyRKRmKrrdExxwAIBJMVfOjrpsjbq8rHgoNCOaA1Hlmaj65znQAACTalv5cPTKvPKh0IxY/iOq/FcOMAAAr6jL+qjLXUqIQjPc6d8bqX+FAwsAwF+aKeuiV6aiLk8rIwrNkOW5SLmK6+872UEFAOCNbStvj7pMR10OKiUKzSrnUKQ8G1ctXOBgAgBwbHrl01GX2xQThWaVsiuqxb9zEAEAeGvqsiHqcr+CotCs0PdkHoxO3hilrHH4AABoR7ecGnXZHHV5VlFRaJYpL0TKW6Pae4YDBwDA8pgv7466zEZdlhQWhaa1dJr5qG5/nwMGAMDKuLFcHnXZqbQoNG8xi9FZ/KIDBQDAyjv8HYe6bIy6/F55UWiOMX+I1ExFt3uCgwQAwOr6fjk95koVdXlZiVFo3iT7o2qmY2v/bQ4OAADDpVc+FHXpKjIKzWt/TybfEtXCxxwUAACG243lq1GXOxUahebV3BNV/oaDAQDA6NheToy5sil65TGFZmLzZKT+5qj2nuRAAAAwmrrl3KjLdNTlgEIzMTkUKc9GtecdDgAAAONhvnw0euVmhWbs88P4/9u3nxep6zCA449umtlPKgqpJCQiIoQQIoRAIigCj173KN726PUzA4Edt9te9zig85kmiCiSQNDmOwsWWdEPKkmiqEiyzGz3EYmgKGHZZndndl8veP6Bz/Nc3odPWdjr4AEA2JhqHoyanwmaDTfno91MO3AAADa+udwWvZyJmhcFzcTPpWg1JcrJHQ4bAIDN5Xjuil7ORc1FQTNxsxStphNluNshAwCwuXVzX9Q8JWgmZpoog/0OFwAA/pK5JXp5KGp+KWjGdi5EuzkcJbc6WAAA+C/93BndLFHzsqAZm7kSZTAbL5+63YECAMByHM8Ho+Z81FwSNOs47UE/SrPHQQIAwEp080D08qygWfP5MFoLzztAAAD4v67/2ag5HTW/FTSrPj9EazATnc6UwwMAgFHq5l1R81jUvCJoRj5XozRzUYb3OjQAAFhNJ/LRqPmaoBnZvBWlecJhAQDAWqr5XNT8QNCsdIafRGt4yCEBAMB6mctt0cuZqPmToFn2XIpWU+KVT292QAAAMA5O5D1RczZq/iFobjiL0Wrm46Uz9zsYAAAYR718Mmq+I2j+Ne9GWXjagQAAwCSoeTBqfiFohl9Hu5mOzC2OAgAAJkknb4maR6Pmz5swaH6NVnMsyrnbHAIAAEyyfj4QNeej5tKmCJr2oB/l9MMWDwAAG0k3n4qapzdw0CxEe+EZiwYAgI3q+l+SmtNR85sNFDTfR2swE53OlAUDAMBm8EbeGt0sUfO3CQ6a36MMZuPY8E4LBQCAzaiXj0TNzsQFTbt5M8qZxy0QAACIeDWfjZrvT0DQfByledHCAACAfzqZN0U3D0cvvxvDoPkxWsOjUc5ttygAAODGOnl31JyNmlfHIGgWo9XMR3nvPosBAACWr5+PRc3X1zFo3o6ysNciAACAlat5MHr5+RoGzfloN9MeHgAAGI1Obo9ezkTNi6sYNL9EqylRTu7w4AAAwOgdz13Ry7mouTjCoFmKVtOJMtztgQEAgNXXzX1R89QIgqaJMtjvQQEAgLWVuSV6eShqfrWCoLkQ7eZwlNzqIQEAgPXTz53RzRI1Ly8jaK5EGcxGOXOHhwMAAMZHzYei5vwNg6Y96Edp9ngoAABgfHXzQPTy7N+C5qMogxc8DAAAMBk6ORW9PBLt4ZHodKY8CAAAAAAAAAAAAAAAAAAAAAAAAAAAAAAAAAAAAAAAAAAAAAAAAAAAAAAAAAAAAAAAAAAAAAAAAAAAAAAAAAAAAAAAAAAAAAAAAAAAAAAAAAAAAAAAAAAAAAAAAAAAAAAAAAAAAAAAAAAAAAAAAAAAAAAAAAAAAAAAAAAAAAAAAAAAAAAAAAAAAAAAAAAAAAAAAAAAAAAAAAAAAAAAAAAAAAAAAAAAAAAAAAAAAAAAAAAAAAAAAAAAAAAAAAAAAAAAAAAAAAAAAAAAAAAAAAAAAAAAAAAAAAAAAAAAAAAAAAAAAAAAAAAAAAAAAAAAAAAAAAAAAAAAAAAAAAAAAAAAAAAAAAAAAAAAAAAAAAAAAAAAAAAAAAAAAAAAAAAAAAAAAAAAAAAAAAAAAAAAAAAAAAAAAAAAAAAAAAAAAAAAAAAAAAAAAAAAAAAAAAAAAAAAAAAAAAAAAAAAAAAAAAAAAAAAAAAAAAAAAAAAAAAAAAAAAAAAAAAAAAAAAAAAAAAAAAAAAAAAAAAAAAAAAAAAAAAAAAAAAAAAAAAAAAAAAAAAAAAAAAAAAAAAAAAAAAAAAAAAAAAAAAAAAAAAAAAAAAAAAAAAAAAAAAAAAAAAAAAAAAAAAAAAAAAAAAAAAAAAAAAAAAAAAAAAAAAAAAAAAADAn64BEQhLuycyQH0AAAAASUVORK5CYII=;" vertex="1" parent="1">
          <mxGeometry x="110" y="215" width="50" height="50" as="geometry" />
        </mxCell>
        <mxCell id="F08eT_BKC8G9qxvc_UNh-2" value="&lt;font style=&quot;font-size: 20px;&quot;&gt;&lt;b&gt;Presentational&lt;/b&gt;&lt;/font&gt;&lt;div style=&quot;font-size: 20px;&quot;&gt;&lt;font style=&quot;font-size: 20px;&quot;&gt;&lt;b&gt;Component&lt;/b&gt;&lt;/font&gt;&lt;/div&gt;" style="text;html=1;align=center;verticalAlign=middle;whiteSpace=wrap;rounded=0;" vertex="1" parent="1">
          <mxGeometry x="70" y="170" width="130" height="40" as="geometry" />
        </mxCell>
        <mxCell id="F08eT_BKC8G9qxvc_UNh-4" value="&lt;font style=&quot;font-size: 20px;&quot;&gt;&lt;b&gt;Presentational&lt;/b&gt;&lt;/font&gt;&lt;div style=&quot;font-size: 20px;&quot;&gt;&lt;font style=&quot;font-size: 20px;&quot;&gt;&lt;b&gt;Component&lt;/b&gt;&lt;/font&gt;&lt;/div&gt;" style="text;html=1;align=center;verticalAlign=middle;whiteSpace=wrap;rounded=0;" vertex="1" parent="1">
          <mxGeometry x="234" y="170" width="130" height="40" as="geometry" />
        </mxCell>
        <mxCell id="F08eT_BKC8G9qxvc_UNh-5" value="" style="shape=image;verticalLabelPosition=bottom;labelBackgroundColor=default;verticalAlign=top;aspect=fixed;imageAspect=0;image=data:image/png,iVBORw0KGgoAAAANSUhEUgAAAzQAAAM0CAYAAABtcmd3AAAACXBIWXMAAAsTAAALEwEAmpwYAAAABmJLR0QA/wD/AP+gvaeTAABBP0lEQVR42uzdW4xcZ5kv/MdOnHNCEhICIeEcIDAwECbDwHAYGEsMbHyZq0/y3fZtX33y7XrLOTjK3mx1pC3Rn0bfSK2Rtqa+iXtVmgRQBpyAcdrrrXZwiENIIEBIQg7kfPSp30+uxAMMOdjO6u46/H7SX/L1Ws9bfv5VXbUiAAAAAAAAAAAAAAAAAAAAAAAAAAAAAAAAAAAAAAAAAAAAAAAAAAAAAAAAAAAAAAAAAAAAAAAAAAAAAAAAAAAAAAAAAAAAAAAAAAAAAAAAAAAAAAAAAAAAAAAAAAAAAAAAAAAAAAAAAAAAAAAAAAAAAAAAAAAAAAAAAAAAAAAAAAAAAAAAAAAAAAAAAAAAAAAAAAAAAAAAAAAAAAAAAAAAAAAAAAAAAAAAAAAAAAAAAAAAAAAAAAAAAAAAAAAAAAAAAAAAAAAAAAAAAAAAAAAAAAAAAAAAAAAAAAAAAAAAAAAAAAAAAAAAAAAAAAAAAAAAAAAAAAAAAAAAAAAAAAAAAAAAAAAAAAAAAAAAAAAAAAAAAAAAAAAAAAAAAAAAAAAAAAAAAAAAAAAAAAAAAAAAAAAAAAAAAAAAAAAAAAAAAAAAAAAAAAAAAAAAAAAAAAAAAAAAAAAAAAAAAAAAAAAAAAAAAAAAAAAAAAAAAAAAAAAAAAAAAAAAAAAAAAAAAAAAAAAAAAAAAAAAAAAAAAAAAAAAAAAAAAAAAAAAAAAAAAAAAAAAAAAAAAAAAAAAAAAAAAAAAAAAAAAAAAAAAAAAAAAAAAAAAAAAAAAAAAAAAAAAAAAAAAAAAAAAAAAAAAAAAAAAAAAAAAAAAAAAAAAAAAAAAAAAAAAAAAAAAAAAAAAAAAAAAAAAAAAAAAAAAAAAAAAAAAAAAAAAAAAAAAAAAAAAAAAAAAAAAAAAAAAAAAAAAAAAAAAAAAAAAAAAAAAAAAAAAAAAAAAAAAAAAAAAAAAAgLFSl1vixvJxFwKAibJl4ZLoNPMuBOYKRr/QlKjL/uiVmZgv57kgAIy16o6zI+WtkfLLkXJxQTBXMB6F5kieiF6Zim45wYUBYLwWzrI2OnljpPzIYOE8EjBXMFaF5kjujrp8zcUBYCx0mi9Hynf82cJp8cRcwVgXmlfSK/NxY3m/iwTASKoWLoqUZyPlpddcOi2emCsY80LzSvZFXaajV850sQAYjYWzf1qkXEXKL77uwmnxxFzBxBSaI3ko5sqmwd+KAsAwKmVNpP4VkfJv3nThtHhirmDiCs0rmStNbCufc+EAGCpV/7JI+cdHvXBaPDFXMKGF5pUsRV26UZeLXUAAVtVV/XdFlWci5YPHvHRaPDFXMLGF5kiej7lSxfZyigsJwIqa6a+L1ExFys8c18Jp8cRcgULzJ3kg6rLRxQRgRaRmQ6T8y7e0cFo8MVeg0LxGfhi98kkXFYBlsSV/JFK+uZWF0+KJuQKF5nVyKOoyG91yvosLQCuuufOcqJrpSPlAq0unxdNcmStQaN4gT0ZdNke3nOQiA3Bcqu0nRidvipQfa33htHiaK3MFCs1R5p6oyzdcaACObelc/GqkvGfZFk6Lp7kyV6DQHGNuiW3lUhccgDe0pf/BSLm77AunxdNcmStQaI4j+6Mu03FzOcuFB+DPXLfn9Ei5ipRfWrGl0+JprswVKDTHmcejV6aiW05wAwAmXClropM3Rsq/X9GF0+JprswVKDRvOXNlMbaVL7gJABOq01weKe9clYXT4mmuzBUoNC1lKerSjRvKe90MgAlR7b4wqjwTKR9a1aXT4mmuzBUoNC3mhZgrVXTLqW4KwLgunHtPitRMRcrPrvrCafE0V+YKFJplyu+iLhsHf/sKwPhIzYZI+f6hWTgtnubKXIFCs6zplVtjrnzKDQIYcVsWL43UfG/oFk6Lp7kyV6DQrEAORV1mo1cucKMARky189yomulI+eDQLp0WT3NlrkChWaE8FXXZHDeXk90wgCE3018XnbwpUn58qBdOi6e5Mleg0KzCzzzfG9vKN900gCFV5fWR8l0jsXBaPM2VuQKFZhVzS9xYPu7mAQyJLQuXRMrdkVo4LZ7mylyBQrPK2R91mY65crabCLBKqr1nRMpVpPzySC6dFk9zZa5AoRmCPBG9MhXdcoKbCbBSC2dZG528MVJ+ZGQXTounuTJXoNAMWe6IbeXLbijAMuv0PxspL4z8wmnxNFfmChSaIX1+zXzcWN7vxgK0rFq4KFKejZSXxmbptHiaK3MFCs2Q5sWoy9bolTPdYIC3unD2T4vU3xwpPzdWC6fF01yZK1BoRiAPRV02Rilr3GiA45CaDZHyb8Zy4bR4mitzBQrNCD2/polt5XNuNsBRqvqXRco/HuuF0+JprswVKDQjlqWoy2zcVN7ppgO87sJ5XlTNdKR8cCKWTounuTJXoNCMYJ6PuVLF9nKKmw/wqpn+ukjNVKT8zMQsnBZPc2WuQKEZ8fwyeuUKAwBMvCqvj5TvnriF0+JprswVKDRj8v2aH0SvfNIgABNnS/5IdPJNE7twWjzNlbkChWaMciB6ZSa65XwDAYy9a+48J1LeGinvm/il0+JprswVKDRjliejV6ZieznRYABjpypro5M3RsqPWTgtnubKXIFCM965J+bK1w0HMDZS/yuR8h6LpsXTXJkrUGgmKb0yH3Plg4YEGFlXNhdHyrMWTIunuTJXoNBMbvZHXabj5nKWYQFGxnV7To+Uq0j5JculxdNcmStQaORwHo65sim65QRDAwytUtZE6l8RKT9gqbR4ti7lh82MuQKFZvTTj23lCwYHGDqd5vJI+SeWSYvnMhYa82KuQKEZkyxFXbpxQ3mvAQJWXbX7wqjyTKR8yCJp8VRozBUoNHIseSHmShXdcqpBAla+yOw9KVIzFSk/a4G0eCo05goUGnkr+V3UZePgb9cBVmSxbDZEyvdbHC2eCo25ApSRNn/m+daYK58yVMCy2bJ4aaTmexZGi6dCY64AhWa5cijqMhu9coHhAlpT7Tw3qmY6Uj5oWbR4KjTmClBoViJPRV02x83lZEMGHLeZ/rro5E2R8uOWRIunQmOuAIVm5TNX7o1t5ZsGDThmVV4fKd9lObR4KjTmClBohiG3xI3l4wYOeFNbFi6JlLuWQounQmOuAIVm2LI/6jIdc+Vsgwf8hWrvGZFyFSm/bCG0eCo05gpQaIY5T0SvTEW3nGAAgajK2ujkjZHyIxZBi6dCY64AhWaUckf0ypcMIUywTv+zkfKCBdDiqdCYK0ChGeXn18zHjeX9hhEmSLVwUaQ8GykvWf4sngqNuQIUmnHIi1GXrdErZxpKGOci0z8tUn9zpPycpc/iqdCYK0ChGcc8FHXZGKWsMZwwbstgsyFS/o1lz+Kp0JgrQKGZhOfXNLGtfM6Awhio+pdFyj+25Fk8FRpzBSg0k5alqMts3FTeaVBhJIvMeVE105HyQQuexVOhMVeAQjPJeT7mShXbyykGFkbATH9dpGYqUn7GYmfxVGjMFaDQyB9zX/TKFYYWhliV10fKd1voLJ4KjbkCFBp5/e/X/CDq8gnDC0NkS/5IdPJNFjmLp0Ij5goUGjm6HIhemYluOd8Qwyq65s5zIuWtkfI+S5zFU6ERcwUKjRx7noxemYrt5UTDDCuoKmujkzdGyo9Z3iyeCo2YK1Bo5K3n5zFXvm6gYSWWuv5XIuU9ljaLp0Ij5goUGmk7vTIfc+WDBhuWwZXNxZHyrGXN4qnQiLkChUaWN/ujLtNxcznLgEMLrttzeqRcRcovWdQsngqNmCtQaGTl8nDMlU3RLScYdDgOpayJ1L8iUv6tBc3iiUJjrkChkdVLP7aVLxh2OAad5vJI+ScWM4snCo25AoVGhiNLUZdu3FDea+jhDVS7L4wqz0TKhyxlFk8UGnMFCo0MX16IuVJFt5xq+OFPi8zekyI1U5Hys5YxiycKjbkChUaGP7+LumwcfEcAJn5JazZEyvdbwiyeKDTmChQaGb2feb415sqnHAQm0pbFSyM137N8WTxRaMwVKDQy2jkUdZmNXrnAgWAiVDvPjaqZjpQPWrzEgVBozBUoNDI+eSrqsjluLic7GIylmf666ORNkfLjFi6xeCo05goUGhnf/CK2lW86HIzXpzJ5faT8M4uWWDwVGnMFCo1MTm6JG8vHHRJG2paFSyLlrgVLLJ4KjbkChUYmM/ujLtPRLW9zWBitT2T2nhEpV5Hyy5YrsXgqNOYKFBqRP0SvTEW3nODQMNxFpqyNTt4YKT9iqRKLp0JjrkChEfmv2R298iUHh6HU6X82Ul6wTInFU6ExV6DQiLzZ82vm48byfgeI4fhUZuGiSHk2Ul6ySInFU6ExV6DQiBxtXoy6bI1eOdNBYnWKTP+0SP3NkfJzFiixeCo05goUGpHjzYNRl41RyhoHipVbrJoNkfq/tjiJxVOhMVeg0FjIpZ3MlSa2lc85VCzzpzKXRWp+ZGESi6dCY64AhUaWI0tRl9m4qbzT4aJVV+96e1TNdKR80LIkFk+FZsjze8MCCo2Mfp6PuVLF9nKKQ8ZbMtNfF6mZipSftiSJQqPQDHn2D9542dr37DZQaGSMcl/0yhUOGselyusj9fdakkShUWiGPp18S1QLHzMkoNDI+H6/5gdRl084cByVLfkj0ck3WZJEoVFoRiD3RJW/YThAoZHJyIHolZnolvMdPF7TNXeeEylvjZT3WZJEoVFohjxPDn42vtp7ksEAhUYmL09Gr0zF9nKiA8hAVdZGJ2+MlB+zJIlCo9AMeQ4NHuR79W5vzoFCI1J+HnPl6w7hpC9I/a9EynssSaLQKDQjkB9GtfhJgwAKjcifp1fmY6580GGcMFc2Fw/e5bQgiUKj0Ax/Hhh8igwoNCJvkP1Rl+m4uZzlUI656/acHilXkfJLlmlRaBSaIc/zg9erartHEIBCI3LUeTjmyqbBdyoYL6WsidS/IlL+rSVaFBqFZsizFCl3o+q/x00HhUbkeNOPbeULDuiYqHb9TaT8E8uzKDQKzQgkR9V83s0GhUakjSxFXbpxQ3mvgzqqRWb3hVHlmVd/FcjiLAqNQjPMeSg62V8IgEIjsix5IeZKFd1yqgM7KkVm70mRmqlI+VkLsyg0Cs2QZ19UzXRcu+NMNxgUGpHlzu+iLhsH38VgiBeeZkOk/CuLsig0Cs3Qp9PMR5U/4MaCQiOy0j/zfGtsK3/t8A6ZLYuXRmq+Z0EWhUahGYHcHWnxa24oKDQiq5lDUZfZ2Fbe4RCvsmrnuYM/10j5oOVYFBqFZsjzxODPYbvdE9xMUGhEhiVPRV02x83lZId5pYvM9hMHX6BN+XFLsSg0Cs2Q58DgB0qq/nluIig0IsOaX8S28k0HeqWWmuYfI+WfWYZFoVFoRiD/EVX+KzcPFBqRUcktcWP5uIO9TLYsXDJ42JwlWBQahWbo07938DBfQKERGcHsj7pMR7e8zQFvSbX3jEi5ipRftgCLQqPQDHmeG7xeXX+fP0UGhUZk5POH6JWp6BZf/jzuIlPWRidvjJQfsfiKQsOQ38vDD/CdjasWLnCjQKERGbfsjl75ksN+rGUm/22k5nYLryg0jECh2RXV4t+5QaDQiIz782vm48byfof+TVy5892DdzlTXrLsikLDcBea/oODT5E9cBkUGpEJyotRl63RK2c6/P/1E5n+aZH6m1/9+3NLrig0DHOheSFS3jr4fh+ABVcmNA9GXbyr959LSrMhUv/XlltRaBj6QtNp5qO6/X1uBqDQiBzOXGliW/ncBH8qc1mk5keWWlFoGIFCsxidxS+6CYBCI/KXWYq6zMZN5Z0Tc+6v3vX2qJrpSPmghVYUGoa80PwhUjMV3a5frAQUGpE3yfMxV6rYXk4Z2/M+0183WAxSftoiK6LQDHmh2T9442Vr3zPFAIVG5BhzX/TK+D1dusrrI/X3WmBFFJqhLzSdfEtUCx9zwQGFRuStfb/mB1GXT4z8Gd+SPxKdfJPFVUShGYFCc09U+RsuNKDQiLSXA9ErM9Et54/c2b7mznMGP2ua8j5Lq4hCM+SF5snBz8ZXe09ykQGFRmR58mT0ylRsLycO/ZmuytrBg+ZS86hlVUShGfJCc2jwIN9qzztcXEChEVmZ/DzmyteHd9nofyVS3mNJFVFoRqDQ/DCqxU+6qIBCI7Ia6ZX5mCsfHJpzfGVz8eBdTsupiEIz/IXmgcGnyAAKjciqZ3/UZTpuLmet2vm9bs/pkXIVKb9kMRVRaIa80Dw/eL2qtp/iQgIKjchw5eGYK5sG311ZKaWsidS/IlL+rYVURKEZ8kKzFCl3o+q/xwUEFBqR4U4/euXvl/3MVrv+JlL+iUVURKEZgUKTo2o+78IBCo3I6GQp6tKNG8p72y8yuy+MKs+8+qtAllARhWaYC81D0ckr+8k1oNCISKt5IeZKFdvLW/9b8cPPZUjNVKT8rOVTRKEZ8kKzL6pmOq7dcaaLBSg0IuOR30VdNg6+83Jcy0OzIVL+laVTRKEZ+kLTaeajyh9wkQCFRmQ8sz22lb8+6nO5ZfHSSM33LJsiCs0IFJq7Iy1+zcUBFBqR8c+hqMtsbCuv/0Tsaue5gz/XSPmgRVNEoRnyQvPE4M9hu90TXBhAoRGZrDwVddkc3XLSH4vM9hMHX6BN+XELpohCM+SF5sDgB0qq/nkuCKDQiEx2fhHbyjcjNf8YKf/MYimi0Ay9Tv7u4E9iARSakc36qMtdroO0GgultJr+va8+dNW1UGgAFBr5LzlspqyLXpmKujztmohCI0OU5yLlKq6/7+TBa5XrodAAKDTymoXmiG3l7VGX6ajLQddGFBpZxRx+0OpsXLVwwZ+9RrkuCg2AQiNvWGiO6JVPR11uc31EoZFVyK6oFv/uNV+bXBuFBkChkaMqNH+8jhuiLve7TqLQyAp8T+bB6OQ3fmCr66TQACg0ckyF5rBuOXXwc7x1edb1EoVGliEvRMpbo9p7xpu+HrlWCg2AQiPHXGiOmC/vHjxAsS5LrpsoNNJKOs18VLe/76hfh1wzhQZAoZHjLjRH3Fguj7rsdO1EoZG3kMXoLH7xmF9/XDeFBkChkbdcaA47/DfuddkYdfm9aygKjRxD/hCpmYpu94Tjeu1x/RQaAIVGWik0R3y/nB5zpYq6vOxaikIjb5D9UTXTsbX/trf0muM6KjQACo20WmiO6JUPRV26rqcoNPKX35PJt0S18LFWXmtcT4UGQKGRZSk0R9xYvhp1udN1FQulRMr3RJW/0eprjGuq0AAoNLKsheaw7eXEmCubolcec30VGpnIPBmpvzmqvSe1/vri2io0AAqNLHuhOaJbzo26TEddDrjOCo1MRA5FyrNR7XnHsr2uuMYKDYBCIytWaI6YLx+NunzXtVZoZKzzw6gWP7nsryeus0IDoNDIiheaP96TDdErv3LNFRoZqzwQnbxxxV5HXG+FBkChkVUrNDH4M7STolemoi7PuPYKjYx0XoiUq6i2n7KiryGuu0IDoNDIqhaaI24o74pemYm6HHIPFBoZqSxFyt2o+u9ZldcO11+hAVBoZCgKzRFz5TNRlx3ug0IjI5EcVfP5VX3NcA8UGgCFRoaq0BxWyprolSuiLr91PxQaGco8FJ28KaqydtVfL9wLhQZAoZGhKzRHzJfTYq5UUZeX3BeFRoYi+6JqpqNaOGtoXifcE4UGQKGRoS00f7x3F0ddZt0bhUZWMZ1mPqr8gaF7fXBvFBoAhUaGvtAcMVf+IXrlp+6RQiMrmp9H1fzT0L4uuD8KDYBCIyNTaA47/Df7ddkYdXnUvVJoZFnzRKRmKqrtJw71a4L7pNAAKDQyUoXmj5/WnB112Rp12eeeKTTSag5ElWei6p83Eq8F7pdCA6DQyEgWmiO2lQ9HXb7jvik00kr+I6r8VyP1GuCeKTQACo2MdKH54/1dH3XZ6/4pNHJcuS9S/4qRPPvunUIDoNDIWBSaw2bKuuiVqajL0+6jQiNHlecj5Squv+/kkT337qFCA6DQyNgUmiO2lbdHXaajLgfdT4VGXjNLkfJsVM07R/68u5cKDYBCI2NXaI7olU9HXX7knio08mfZFdXi343NOXc/FRoAhUbGttD88d5viLr82r1VaCY7/QejkzdGKWvG6ny7twoNgEIjY19oDuuWU6Mum6Muz7nHCs2E5cVIeWtUe88Yy7Pt/io0AAqNTEShOWK+vDvqMht1WXKvFZqxT6eZj+r29431mXafFRoAhUYmqtAcMVf+Nupyu/ut0IxpFqOz+MWJOMvutUIDoNDIRBaaww5/l6AuG6Muv3ffFZoxyR8iNVPR7Z4wMefYPVdoABQamdhCc8T3y+kxV6qoy8vuv0IzotkfVTMdW/tvm7jz694rNAAKjUx8oTmiVz4UdemaAYVmtL4nk2+JauFjE3tuzYBCA6DQiELzX8yVf4y63GkWFJohzy8i9f/bxJ9Xc6DQACg0otC8hu3lxJgrm6Iuj5sJhWbI8lSk/uao9p7koCo0Cg2AQiMKzRvrlnOjLtNRlwNmQ6FZ5RyKlGej2vMOB1OhUWgAFBpRaI7NfPlo1OW75kOhWaXvyWyPzq6/dhAVGoUGQKERheatztGG6JVfmROFZoXyQHTyRgdPoVFoAFBoFJr2dMtJ0StTUZdnzItCs0x5IVKuotp+igOn0Cg0ACg0Cs3yuKG8K3plJupyyNwoNC1lKVLuRtV/jwOm0Cg0DLXDD6f2CTIoNArNmOiVv4m67DA7Cs1bTI5O/nsHSqFRaBh61a6/iZR/Yq5AoVFoxu2dql65IuryWzOk0BxjHo5O3hRVWesgKTQKDcNdZHZfGFWeefVXF80VKDQKzViaL6fFXKmiLi+ZJYXmTbIvqmY6qoWzHByFRqFhuIvM3pMiNVOR8jPmChQahWZy5u3iqMuseVJoXvtnmJv5qPIHHBSFRqFh+M9YsyFS/pW5AoVGoZlUc+Ufold+aq4Umlfz86iaf3IwFBqFhqFX9T8anfxdcwUKjUJDDL4bUZeNUZdHFZqJzRODP9eotp/oQCg0Cg3D/X/WznMHfw6b8gFzBQqNQsOfmytnR122Rl32KTQTkwODL9BW/fMcAIVGoWG4i8z2Ewc/UJLy4+YKFBqFhje2rXw46vIdhWbs8x/R6X/CwCs0Cg3Df46af4yUf2auQKFRaDjWmVwfddmr0Ixd7ovUv8KAKzQKDUOvWvzQ4GG+5goUGoWG4zZT1kWvTEVdnlZoRj7PR8pVXH/fyQZboVFoGGrX7Tl98HqV8svmChQahYZ2bCtvj7pMR10OKjQjl6VIeTaq5p0GWaFRaBhqhx8C3ckbI+XfmytQaBQalsd8uSzq8iOFZmSyK6rFvzO4Co1Cw9Cr8t9Gam43V6DQKDSs1LxuiLr8WqEZ1vQfHLzLefjdThQahYZhduXOdw8+RX7l02RzBQqNQsMK6pZToy6boy7PKTRDkxcj5a1R7T3DgCo0Cg1D7Vs7T43U3xwpP2euQKFRaFhd8+XdUZfZqMuSQrOK6TTzUd3+PgOp0Cg0DP+5aDZE6v/aXIFCo9AwXObK30ZdbldoVjy7o2q+ZAAVGoWGodfJn47U/MhcgUIjDK+qrI26bIy6PKLQLHv+EKmZim73BIOn0Cg0DLWrd709qmY6Uj5orkChEYVmNHy/nB5zpYq6vKzQtJ79g8Vga/9tBk2hUWgYajP9dYM3XlJ+2lyBQiMKzWiaL5dEXboKTVvfk8m3RKf5uMFSaBQahl6V10fq7zVXoNCIQjMe5so/Rl1+ptAcd34Rqf/fDJJCo9Aw/EVm14cj5e+YK1BoRKEZP9vLiTFXNkVdHldojjpPDX7WtNp7kgFSaBQahrvI3HH24GfjU95nrkChEYVmvHXLuVGX6ajLAYXmdXNo8KC5as87DIxCo9Aw3EWmrB08yDc1j5orUGgUFYVmssyXj0ZdvqvQ/MX3ZLZHZ9dfGxCFRqFh+MtM/odI/Z+aK0ChUWgmffY3RK/8SqHJDwze5UShUWgYdlc2Fw8+RTZXgEKj0PCqbjkpemUq6vLMBBaaFyLlKqrtpxgEhUahYahV/dMGr1cpv2SuAIVGoeG19MqF0SszUZdDE1BoliLlblT997jxCo1YPIdaKWsi9a+IlH9rrgCFRqHh6IrN30RdfjLGhaYfnfz3brRCIxbPoddZ/EykvMNcAQqNQsPxvCPYK1dEXX47RoXm4ejkTYNfBUKhEYvnMLuq/66o8syrv7porgCFRqHhuM2X02KuVFGXl0a40OyLqpmOauEsN1ShEYvnUDv83KvUTEXKz5grQKFRaGj3jFwcdZkduULTaeajyh9wAxUasXgO/7w2GyLlX5krQKFRaFhOvfKVqMueESg0P4+q+Sc3TKERi+fQq/ofjU7+rrkCFBqFhhX7z7esjbpsjLo8OoSF5onBn2tU2090o1BULJ7D/Vq689zBn8OmfMBcAQqNQsNq+E45J+qyNeqybwgKzYHBF2iv3n2+G4NCY/Ec7iKz/cTBD5Sk/Ji5AhQahYZh0CsfibrctGqFptP8IDr9T7gRKDQWz+EvM4tfjZTvNFeAQqPQMJznaH3UZe8KFpr7Bg+bA4XG4jn8ReZDg4f5mitAoVFoGHIzZV30ylTU5ellLDTPR8pVXH/fyS44Co3Fc6hdt+f0wetVyi+bK0ChUWgYJdvK26Mu01GXgy0WmqVIeTaq5p0uMAqNxXOoHX44cSdvjJR/b64AhUahYZTNl8uiLj9qodA00dn1ORcUhcbiOfQ6zeWR8k5zZa5AoVFoGK8ztiHq8utjLzT9Bwfvch5+txMUGovnMLty57sHnyK/8mmymTJXoNAoNIyd+XJa1GVz1OW5oyg0L0bKW+PaHWe6cCg0Fs+h9q2dp0bqb46UnzVL5goUGoWGySg27466zEZdll6z0HSa+diy6/0uFAqNxXP4Z6zZECnfb4bMFSg0Cg2TaK78bdTl9j8pNLujar7kwqDQWDyHXid/OlK+zeyYK1BoFBomXVXWRq/890jNfx/8G1qbrT3vsFBaPJenKPf/n0j5kLkxV6DQKDQA7Zvpr4vUTEXKT1soLZ7LU2jMi7kChUahAVgOVV4fKd9lkbR4KjTmChQaUWiAESoyuz48+DEJC6TFU6ExV6DQiEIDjE6RuePswc97p/yy5dHiqdCYK1BoRKEBRqTIlLWDB66m5lFLo8VToTFXgEKj0ACjo9N8OVL/p5ZFi6dCY64AhUahAUZHtXBRpDwbKS9ZFC2eCo25AhQahQYYkSLTPy1SriLllyyIFk+FxlwBCo1CA4yGUtZE6l8RKf/GYmjxVGjMFaDQKDTA6OgsfiZS3mEhtHgqNOYKUGgUGmB0XNV/V1R5JlI+ZBm0eCo05gpQaBQaYDTM9NdFaqYi5WcsgRZPhcZcAQqNQgOM0HLYbIiUf2n5s3gqNOYKUGgUGmB0VP2PRso3W/osngqNuQIUGoUGGB3X3HlOVM10pHzAwmfxVGjMFaDQKDTAaKi2nxidvClSfsyiZ/FUaMwVoNAoNMAIlZnFr0bKd1rwLJ4KjbkCFBqFBhilIvOhSLlrsbN4KjTmClBoFBpgdFy35/RIuYqUX7LUWTwVGnMFKDQKDTAaSlkTnbwxUv69Zc7iqdCIYQGFRqEBRkenuTxS3mmJs3gqNGKuQKFRaIDRceXOd0fKs5HykgXO4qnQiLkChUahAUbDt3aeGqm/OVJ+1uJm8VRoxFyBQqPQACO00DUbIuX7LWwWT4VGzBUoNAoNMDo6+dOR8m0WNYunQiPmChQahQYYHVfventUzXSkfNCSZvFUaMyLuQKFRqEBRsNMf12kZipSftpyZvFEoTFXoNAoNMDoqPL6SPkuS5nFE4XGXIFCo9AAI1Rkdn04Os28ZcziiUJjrkChUWiAESoyd5wdKW+NlF+2iFk8UWjMFSg0Cg0wIkWmrI1O3hipedQCZvFEoTFXoNAoNMDo6DRfjtT/qcVLHAaFxlyBQqPQAKOjWrgoUp6NlJcsXWLxVGjMFSg0Cg0wIkWmf1qkXEXKL1q2xOKp0JgrUGgUGmA0lLImUv+KSPk3liyxeCo05goUGoUGGB2dxc9EyjssV2LxVGjMFSg0otDA6Liq/66o8kykfMhiJRZPhcZcgUIjCg2Mhpn+ukjNVKT8jIVKLJ4KjbkChUYUGhihRavZECn/0iIlFk+FxlyBQiMKDYyOqv/RSPlmC5RYPBUacwUKjSg0MDquufOcqJrpSPmA5UksngqNuQKFRhQaGA3V9hOjkzdFyo9ZmsTiqdCYK0ChUWhghMrM4lcj5TstS2LxVGjMFfCnhWZ91OVuhUWhgSEuMh+KlLuWJGk59w0euopCo9DAGJgp66JXpqIuzyguCg0Mjev2nB4pV5HySxYkaTHPD+aq2n6KQ6bQKDQwbubLeVGX6ajLQQVGoYFVU8qa6OSNkfLvLUbSYpYi5dmomnc6ZAqNQgPjX2wui7r8SIlRaGDFdZrLI+WdFiJpOU10dn3OAVNoFBqYNHXZEHX5tTKj0MCyu3Lnuwfvnr/yLrplSFpK/8HBp32HP/VDoVFoYELNl9OiLpujLs8pNEDrvrXz1Ej9zZHys5YgaTEvRspb49odZzpkCo1CA7zihnJR1GU26rKk0ADtLEfNhkj5fsuPtJpOMx9bdr3fAVNoFBrgtdXls1GXBYUGOG6d/OlI+TZLj7Sc3VE1X3LAFBqFBnhzVVkbddkYdXlEoQGO2tW73h5VMx0pH7TwSIv5Q6RmKrrdExwyhUahAY5Nt5wRc6WKurys0ACva6a/brBwpvy0RUdazP5BQd7af5tDptAoNMBbM18uibp0FRrgL1R5faR8lwVH2v2eTL4lOs3HHTCFRqEB2lWX9VGXnyk0QFS7Pjz4crbFRtrNL6La9U0HTKFRaIDlM1PWxVzZFHV5XKGBSSwyd5w9+LnclF+21EiLeWrw897X33eyQ6bQKDTAyuiWc6Mu01GXgwoNTEKRKWsHDzBM+RHLjLSYQ4MHrl61cIFDptAoNMDq2FYujbp8T6GBMdZpvhwp32GJkZZza1TNpxwwhUahAYZDXTZEXe5XaGCMVAsXDd49T3nJAiMt5neDT/tKWeOQKTQKDTBcuuWk6JWpqMuzCg2McpHpnxYpV5HyixYXaTEvDObqWztPdcgUGoUGGG69cmH0ykzU5ZBCAyPk8DvmqX9FpPwbC4u0mMOf8HXjyt3vdcgUGoUGGC03lsujLj9RaGAEdBY/Eyn/2KIiLacfVf8LDphCo9AAo/2Ob69cEXV5QKGBIXRV/11R5ZlI+aAlRVrMw9HJm6LbPcEhU2gUGmA8fL+cHnOlirq8pNDAEJjpr4vUTEXKz1hOpMXsj6qZjmrhLIdMoVFogPFUl4ujLrMKDazm0tJsiJR/aSmRVtNp5mNL/4MOmEKj0ACToVe+EnXZo9DACqr6H42Ub7aMSMv5eaT8dQdMoVFogAlcrsraqMvG6JXHFBpYRtfcec7gz4BSPmARkRbz5ODPFqvtJzpkCo1CA0y275Rzoi5boy77FBpo802D7ScOvpid8mMWEGkxBwY/JHH17vMdMoVGoQH4U73ykajLTQoNtFFmFr8aKd9p8ZCWvyfzg+j0P+GAKTQKDcAbqcv6qMvdCg0cV5H50OAhhhYOaTf3DR66ikIjCg1wlGbKuuiVqajLMwoNHIXr9pweKVeR8kuWDWkxzw/mqtp+ikOm0IhCAxyP+XJe1GU66nJQoYHXcPjhtZ28MVL+vSVDWsxSpDwbVfNOh0yhEYUGaKfYXBa98mOFBv5Ep7k8Ut5puZCW00Rn1+ccMIVGFBpgOdRlQ9TlNwoNE63afeHg3fNX3kW3WEhbeWjwad/hT/1QaEShAZbRfDkt6rI56vKcQsNE+dbOUyP1N0fKz1oopMW8GClvjWt3nOmQKTSi0AAr6YZyUdRlNuqypNAw/otGsyFSvt8iIS3/DPN8bNn1fgcMhUahAVZTXT4bdVlQaBhLVfOpSPk2C4S0nDuiar7kgKHQKDTA0Cx9ZW3UZWPU5RGFhvGY6Z3nRtVMR8oHLQ/SYp6I1ExFt3uCQ4ZCo9AAw6hbzoi5UkVdXlZoGEkz/XWDhTPlpywN0mL2DwpydcfZDhkKjUIDjIL5cknUpavQMFKqvD5SvsuyIO1+TybfEp3m4w4YCo1CA4yiuqyPutyl0DDUtixcMvhytiVBWk3/3qh2fdMBQ6FRaIBRN1PWxVzZFHV5XKFhqBz+85/DP5eb8ssWBGkxTw1+3vv6+052yFBoFBpgnHTLuVGX6ajLQYWG1S0yZe3gAYYpP2IxkBZzaPDA1asWLnDIUGgUGmCcbSuXRl2+p9CwKjrNlwc/mWshkHZz6+AnvkGhUWiACVKXDVGX+xUaVkS1cNHg3fOUlywD0mJ+N/i0r5Q1DhkKjUIDTKJuOSl6ZSrq8qyLwfIUmf5pkXIVKb9oCZAW88Jgrr6181SHDIVGoQGIuKFc5CKwLL790LxPZaTFLEXq/+vgEz9oy+FP+FLzfzlfCg0A/KXDf8647dDe+NYv7rQEyFtMP6r+FxwqWtVZ/Eyk/GPnS6EBgNcvNK9kKf5t38645s6HLANyjHk4OnlTdLsnOFC05qr+u6LKM5HyQWdMoQGAoyk0R/J8/MuTt8aWxZcsBfIm2R9VMx3VwlkOEq2Z6a+L1ExFys84YwoNABxPoTmSh+LbD+6wGMhrptPMx5b+Bx0gWpWaDZHyL50xhQYA2ig0r+T/239H/I+7f2FBkFdzT6T8dQeHVm3JH4mUb3a+FBoAaL/QvJJD8W8v7ogr7/iDRWFi8+Tgz4Cq7Sc6NLTmmjvPGfzZYsoHnDGFBgCWs9AcyVPx/z5+a3T6+ywME5MDgy9mX737fIeF1hwuxod/SCLlx5wxhQYAVrLQvJK5pfvj+vsbS8PYf0/mB1EtftIhod0ys/jVSHmPM6bQAMDqFZoj+ff9i3HtXb+yPIxdfhmpf4XDQasO/4hEyl3nS6EBgOEpNK9kf/zrs7fFlYvPWiJGPs9HylVU209xMGjNdXtOH8xVyn4KXqEBgKEsNEf+DO2J+OdHb4tO30PwRi9LkfJsVM07HQhaU8qa6OSNkfLvnTGFBgCGv9AcyQ2Hfh7/615/Hz86aaKz63MOAq3qNJdHyjudL4UGAEav0Pzn92v2NXH1ngctFkObhwbvnh9+Fx3aUu2+cPBp3yuf+jlnCg0AjHCheSUvxOxTt8aWxectGEOTFyPlrXHtjjMNP6351s5TI/U3R8q+S6fQAMBYFZpXs/RwfPvBHd61XfWfYZ6PLbveb+hpVWo2RMr3O2MKDQCMcaE58v2aA3fF//zFXZaNFc8d0Wm+bNhpVdV8KlK+1flSaABgcgrNKzkU//bijrjqp54Qvvx5IlIzFd3uCQad9orMznOjaqYjZb9oqNAAwEQWmiN/hvZ8/MuTh79f87Llo/XsHyyc1R1nG3BaM9NfNyjIKT/ljCk0AKDQ/PH5Nb+O//1bP+/a2vdk8i3RaT5usGlVlddHyv5cVKEBAIXm9X/mef9iXLf3PovI8aZ/b1S7vmmgadWWhUsGPybhjCk0AKDQHFX2x78+e1tcuftpC8lR57lIuYrr7zvZMNOaau8Zg7lK2Z+EKjQAoNAcc3rlyfjnR2+LTt+Xjl8/hwYPMLxq4QJDTHtFpqwdPHA15UecMYUGABSat/z9mkP3xLfu/anl5C+yEJ3+Zw0vrTo8U4dny/lSaABAoWn7+zX7mrj2Zw9YUvLvBu+el7LG4NKaauGiwad9Hnyr0ACAQrOseTFmn7o1tux+bgKXkxci5a2D7zVAa0Wmf1qk/uZXv4elACg0AKDQrNDPPD8S335wx8S8m3z4F6au3P1eg0qrUrMhUv6NxV+hAQCFZrWy7dDe+J/3/myMF5LFqPpfMKC0qupfFin/2MKv0ACAQjMcWYp/e3FHXLPn0TFaRB4fPI292z3BcNJikTkvqmY6UvbLgQoNACg0Q5jn41+evDW2LL40wgvI/sHCWS2cZShpzUx/3aAgp/yMJV+hAQCFZvi/X/Pb+N+/3Tl635PJt8SWxUsNI62q8vpI+W7LvUIDAArNqOXfD+yO/3H3L0Zg6bgnqvwNQ0irtuSPRCffZKlXaABAoRntHIj/89yP4so7/jCEy8aTg5/LrfaeZABpzTV3njP4ee+U91noxYEAQKEZnzwV//zobdHpHxiCJePQ4AGGV+8+3+DRmqqsHTxwNeXHLPKi0ACg0Ixr5pbuj+t/lVdxwfhhVIufNHC0KvW/EinvscCLQgOAQjMp+fd9TWz92W9XcLF4YPDuObTpyubiwad9FndRaABQaCas0LyS/fGvz94WVy4+u4wLxfORchXV9lMMGa25bs/pg7lK+SVLuyg0ADC5heZIHolvP/yj6PTbfNjgUqTcHbyDDm0pZU2k/hWDT/ws66LQAIBC82fZduju+F/3tvE9hCaq5vOGilZ1mssj5Z9Y0kWhAQCF5o2yFP+2b2dcvefB41geHopO3jT4tSloS7X7wqjyzKu/jmdBF4UGABSao8oL8S9P3hpbFl88iqVhX1TNdFy740yDRHtFZu9JkZqpSPlZi7koNACg0Bxnlh6Obz+449XvxPzlstBp5mPLrvcbIFqVmg2R8v0WclFoAEChaSc37P9pXPfze/5kUbg70uLXDA6t2rJ4aaTmexZxUWgAQKFZjhyK//PCQlx79/8d3e4JhobWXL37/Ej525HyQUu4tJjHHC4AFBp5rTwVddkcN5eTDQ5vyUx/3eCHJFJ+3PItLWb/4Ickqv55DhkACo28fubKvbGtfNPwcFyqvD5SvsvyLa2mk2+JTvNxBwwAhUaOJbfEjcUCwdHZsnDJ4KGrlm9pNf17Bw9dBQCFRo4z+6Mu0zFXzjZMvKZq7xmRchUpv2z5lhbz3GCurr/Pn8ACoNBIK3kiemUqusWPBvBqkSlro5M3RsqPWL6lxRx+0OpsXLVwgUMGAArNcuSO6JUvGawJ1+l/NlJesHxLy1kYzBYAoNAse3plPm4sHrw5aaqFiwbvnr/eA1lFji+/G3zaV8oahwwAFJqVzItRl63RK2catHEvMv3TIvU3v/q9Bgu4tJUXIuWtg+9hAQAKzSrmoaiLd1fHVWo2RMq/sXxLuz/D3MzHlbvf64ABgEIzTM+vaWJb+ZyhGxNV/7JI+ceWb2k5i1H1v+CAAYBCM6xZirrMxk3lnYZvZIvMeVE105HyQcu3tJjHIzVT0e36pUQAUGhGIs/HXKlieznFEI6Imf66wcKZ8jOWb2kx+wcFuVo4yyEDAIVmFHNf9IqnfA+7Kq+PlO+2fEu735PJt8SWxUsdMABQaMbh+zU/iLp8wkAOmS35I9HJN1m+peXcE1X+hgMGAArNuOVA9MpMdMv5BnOVXXPnOYOfy015n+VbWsyTg5/3rvae5JABgEIzznkyemUqtpcTDegKq8rawQMMU37M8i0t5tDggatX7/ZmBQAoNBOVe2KufN2QrpDU/0qkvMfyLS3nh1EtftIBAwCFZnLTK/MxVz5oWJfJlc3Fg3fPLd7Sbh4YfNoHACg0Msj+qMt03Fz8tGtbrttzeqRcRcovWb6lxTw/mKtqu59kBwCFRl4jD8dc2RTd4uF7x6uUNZH6VwzeQbd8S3tZipS7g0/8AACFRt40/dhWvmCAj1GnuTxS/onlW1pOE1XzeQcMABQaObYsRV26cUN5r0F+E9XuC6PKM6/+2pQFXNrKQ9HJmwa/jgcAKDRy3Hkh5koV3XKqgf6vRWbvSZGaqUj5Wcu3tJh9UTXTce2OMx0yAFBopL38LuqycfAdESJSsyFSvt/yLa2m08zHll3vd8AAQKGR5fuZ51tjrnxqYmd6y+KlkZrvWb6l5dwdafFr/tMAAIVGViaHoi6z0SsXTMwsVzvPHfwZUMoHLd/SYp4Y/Nlit+uXBQFAoZFVyFNRl81xczl5bGd4pr9u8MXslB+3fEuL2T/4IYmqf57/KABAoZHVzy9iW/nm2M1vlddHyj+zfEu735PJt0SV/8p/EACg0Mjw5Za4sXx85Od2y8Ilg4cYWr6l1fTvHTx0FQBQaGSosz/qMh3d8raRm9dq7xmRchUpv2z5lhbz3GCurr/vZP8pAIBCI6OTP0SvTEW3DP+XnQ8/uLCTN0bKj1i+pcUcftDqbFy1cIH/DABAoZHRze7olS8N7Yx2+p+NlBcs39JyFgazBQAoNDI2z6+ZjxvL8DwwsFq4aPDuecpLlm9pMb8bfNrnAbQAoNDIWObFqMvW6JUzV6/I9E+L1N/86vcaLODSVl6IlLcOvocFACg0MvZ5MOqy8u9ip2ZDpP6vLd/S7s8wN/NR3f4+L/gAoNDIpGWuNLGtfG7Z57DqXxap+ZHlW1rOYnQWv+iFHgAUGpnsLEVdZuOm8s5lKDLnRdVMR8oHLd/SYh6P1ExFt3uCF3kAUGhEjuT5mCtVbC+nvOW5m+mvGyycKT9j+ZYWs39QkKuFs7y4A4BCI/J6uS965fifpl7l9ZHy3ZZvafd7MvmW2LJ4qRd1AFBoRI72+zU/iLp84qhnbUv+SHTyTZZvaTn3RJW/4cUcABQakePJgeiVmeiW8193xq6585zBz+WmvM/yLS3mycHPe1d7T/JCDgAKjchbzZPRK1OxvZz4n7NVlbWDBxim/JjlW1rMocEDV6/efb4XcABAoZG28/OYK1+P1P9KpLzH8i0t54dRLX7SCzcA8KeFZkPU5ZcWcWk1Fm9pNw8MPu0DAHhNM2Xd4M+F6vKMZVwUGhmiPB8pV1FtP8ULNQDw5m4o7xp8wbsuhyzlotDIKmYpUu5G1X+PF2YA4NjNlc9EXXZYzEWhkVVIjqr5vBdiAOCtKWXN4OGJdfmNBV0UGlmBPBSdvGnw63gAAK2ZL6fFXKmiLi9a1EWhkWXIvqia6bh2x5lecAGA5XNDuSjqMht1WbKwi0IjraTTzEeVP+AFFgBYOdvKl6NXfmppF4VG3kLujrT4NS+oAMDqOPw37nXZGHV51PIuCo0cQ56I1ExFt3uCF1IAYPXNlbOjLlujLi9b4kWhkTfIgajyTFT987xwAgDDZ1v5cPTKvEVeFBp5jfxHVPmvvFACAMOvLuujLndZ6MUSL5H690bqX+GFEQAYLTNlXfTKVNTlaYu9QiMTmeci5Squv+9kL4gAwOjaVt4edZmOuhy04Cs0MhE5FCnPxlULF3gBBADGR698OupymyVfoZGxzkJ0+p/1ggcAjK+6bIi63G/ZV2hkrPK76OSNUcoaL3IAwPjrllOjLpujLs9a+hUaGem8EClvjWrvGV7YAIDJM1/eHXWZjbosWf4VGhmxdJr5qG5/nxcyAIAby+VRl50KgEIjI5HF6Cx+0QsXAMCfOvy393XZGHX5vSKg0MhQ5g+Rmqnodk/wggUA8Hq+X06PuVJFXV5SCBQaGYrsj6qZjq39t3mBAgA4Wr3yoahLVylQaGQ1vyeTb4lq4WNekAAAjteN5atRlzuVA4VGVjT3RJW/4QUIAKAN28uJMVc2Ra88piQoNLKseTJSf3NUe0/ywgMA0LbvlHOiLtNRlwPKgkIjreZQpDwb1Z53eKEBAFhu8+Wj0Ss3KwwKjbSSH0a1+EkvLAAAK60uG6Iuv1QcFBo5rjwQnbzRCwkAwGqaKeuiV6aiLs8oEAqNHFWej5SrqLaf4gUEAGBY3FDeFb0yE3U5pEgoNPKaWYqUu1H13+MFAwBgWM2Vz0RddigTCo38WXJUzee9QAAAjIJS1kSvXBF1+Y1SodBMeB6KTt4UVVnrhQEAYNTMl9NirlRRl5eUC4VmwrIvqmY6rt1xphcCAIBRd0O5KOoyG3VZUjIUmrFPp5mPKn/AwQcAGDfbypejV36qaCg0Y5q7Iy1+zUEHABhnh79LUJeNUZdHFQ6FZkzyRKRmKrrdExxwAIBJMVfOjrpsjbq8rHgoNCOaA1Hlmaj65znQAACTalv5cPTKvPKh0IxY/iOq/FcOMAAAr6jL+qjLXUqIQjPc6d8bqX+FAwsAwF+aKeuiV6aiLk8rIwrNkOW5SLmK6+872UEFAOCNbStvj7pMR10OKiUKzSrnUKQ8G1ctXOBgAgBwbHrl01GX2xQThWaVsiuqxb9zEAEAeGvqsiHqcr+CotCs0PdkHoxO3hilrHH4AABoR7ecGnXZHHV5VlFRaJYpL0TKW6Pae4YDBwDA8pgv7466zEZdlhQWhaa1dJr5qG5/nwMGAMDKuLFcHnXZqbQoNG8xi9FZ/KIDBQDAyjv8HYe6bIy6/F55UWiOMX+I1ExFt3uCgwQAwOr6fjk95koVdXlZiVFo3iT7o2qmY2v/bQ4OAADDpVc+FHXpKjIKzWt/TybfEtXCxxwUAACG243lq1GXOxUahebV3BNV/oaDAQDA6NheToy5sil65TGFZmLzZKT+5qj2nuRAAAAwmrrl3KjLdNTlgEIzMTkUKc9GtecdDgAAAONhvnw0euVmhWbs88P4/9u3nxep6zCA449umtlPKgqpJCQiIoQQIoRAIigCj173KN726PUzA4Edt9te9zig85kmiCiSQNDmOwsWWdEPKkmiqEiyzGz3EYmgKGHZZndndl8veP6Bz/Nc3odPWdjr4AEA2JhqHoyanwmaDTfno91MO3AAADa+udwWvZyJmhcFzcTPpWg1JcrJHQ4bAIDN5Xjuil7ORc1FQTNxsxStphNluNshAwCwuXVzX9Q8JWgmZpoog/0OFwAA/pK5JXp5KGp+KWjGdi5EuzkcJbc6WAAA+C/93BndLFHzsqAZm7kSZTAbL5+63YECAMByHM8Ho+Z81FwSNOs47UE/SrPHQQIAwEp080D08qygWfP5MFoLzztAAAD4v67/2ag5HTW/FTSrPj9EazATnc6UwwMAgFHq5l1R81jUvCJoRj5XozRzUYb3OjQAAFhNJ/LRqPmaoBnZvBWlecJhAQDAWqr5XNT8QNCsdIafRGt4yCEBAMB6mctt0cuZqPmToFn2XIpWU+KVT292QAAAMA5O5D1RczZq/iFobjiL0Wrm46Uz9zsYAAAYR718Mmq+I2j+Ne9GWXjagQAAwCSoeTBqfiFohl9Hu5mOzC2OAgAAJkknb4maR6Pmz5swaH6NVnMsyrnbHAIAAEyyfj4QNeej5tKmCJr2oB/l9MMWDwAAG0k3n4qapzdw0CxEe+EZiwYAgI3q+l+SmtNR85sNFDTfR2swE53OlAUDAMBm8EbeGt0sUfO3CQ6a36MMZuPY8E4LBQCAzaiXj0TNzsQFTbt5M8qZxy0QAACIeDWfjZrvT0DQfByledHCAACAfzqZN0U3D0cvvxvDoPkxWsOjUc5ttygAAODGOnl31JyNmlfHIGgWo9XMR3nvPosBAACWr5+PRc3X1zFo3o6ysNciAACAlat5MHr5+RoGzfloN9MeHgAAGI1Obo9ezkTNi6sYNL9EqylRTu7w4AAAwOgdz13Ry7mouTjCoFmKVtOJMtztgQEAgNXXzX1R89QIgqaJMtjvQQEAgLWVuSV6eShqfrWCoLkQ7eZwlNzqIQEAgPXTz53RzRI1Ly8jaK5EGcxGOXOHhwMAAMZHzYei5vwNg6Y96Edp9ngoAABgfHXzQPTy7N+C5qMogxc8DAAAMBk6ORW9PBLt4ZHodKY8CAAAAAAAAAAAAAAAAAAAAAAAAAAAAAAAAAAAAAAAAAAAAAAAAAAAAAAAAAAAAAAAAAAAAAAAAAAAAAAAAAAAAAAAAAAAAAAAAAAAAAAAAAAAAAAAAAAAAAAAAAAAAAAAAAAAAAAAAAAAAAAAAAAAAAAAAAAAAAAAAAAAAAAAAAAAAAAAAAAAAAAAAAAAAAAAAAAAAAAAAAAAAAAAAAAAAAAAAAAAAAAAAAAAAAAAAAAAAAAAAAAAAAAAAAAAAAAAAAAAAAAAAAAAAAAAAAAAAAAAAAAAAAAAAAAAAAAAAAAAAAAAAAAAAAAAAAAAAAAAAAAAAAAAAAAAAAAAAAAAAAAAAAAAAAAAAAAAAAAAAAAAAAAAAAAAAAAAAAAAAAAAAAAAAAAAAAAAAAAAAAAAAAAAAAAAAAAAAAAAAAAAAAAAAAAAAAAAAAAAAAAAAAAAAAAAAAAAAAAAAAAAAAAAAAAAAAAAAAAAAAAAAAAAAAAAAAAAAAAAAAAAAAAAAAAAAAAAAAAAAAAAAAAAAAAAAAAAAAAAAAAAAAAAAAAAAAAAAAAAAAAAAAAAAAAAAAAAAAAAAAAAAAAAAAAAAAAAAAAAAAAAAAAAAAAAAAAAAAAAAAAAAAAAAAAAAAAAAAAAAAAAAAAAAAAAAAAAAAAAAADAn64BEQhLuycyQH0AAAAASUVORK5CYII=;" vertex="1" parent="1">
          <mxGeometry x="270" y="99" width="50" height="50" as="geometry" />
        </mxCell>
        <mxCell id="F08eT_BKC8G9qxvc_UNh-6" value="" style="sketch=0;html=1;aspect=fixed;strokeColor=none;shadow=0;fillColor=#3B8DF1;verticalAlign=top;labelPosition=center;verticalLabelPosition=bottom;shape=mxgraph.gcp2.gear" vertex="1" parent="1">
          <mxGeometry x="313.5" y="350" width="35" height="35" as="geometry" />
        </mxCell>
        <mxCell id="F08eT_BKC8G9qxvc_UNh-8" value="&lt;span style=&quot;font-size: 20px;&quot;&gt;&lt;b&gt;Frontend&lt;/b&gt;&lt;/span&gt;" style="text;html=1;align=center;verticalAlign=middle;whiteSpace=wrap;rounded=0;" vertex="1" parent="1">
          <mxGeometry x="35" y="-140" width="130" height="40" as="geometry" />
        </mxCell>
        <mxCell id="F08eT_BKC8G9qxvc_UNh-9" value="" style="sketch=0;html=1;aspect=fixed;strokeColor=none;shadow=0;fillColor=#3B8DF1;verticalAlign=top;labelPosition=center;verticalLabelPosition=bottom;shape=mxgraph.gcp2.gear" vertex="1" parent="1">
          <mxGeometry x="340.35" y="371.5" width="35" height="35" as="geometry" />
        </mxCell>
        <mxCell id="F08eT_BKC8G9qxvc_UNh-10" value="" style="sketch=0;html=1;aspect=fixed;strokeColor=none;shadow=0;fillColor=#3B8DF1;verticalAlign=top;labelPosition=center;verticalLabelPosition=bottom;shape=mxgraph.gcp2.gear" vertex="1" parent="1">
          <mxGeometry x="320" y="386.5" width="20" height="20" as="geometry" />
        </mxCell>
        <mxCell id="F08eT_BKC8G9qxvc_UNh-12" value="" style="shape=image;verticalLabelPosition=bottom;labelBackgroundColor=default;verticalAlign=top;aspect=fixed;imageAspect=0;image=data:image/png,iVBORw0KGgoAAAANSUhEUgAAAc0AAACYCAYAAACGcbLtAAAAGXRFWHRTb2Z0d2FyZQBBZG9iZSBJbWFnZVJlYWR5ccllPAAAA3NpVFh0WE1MOmNvbS5hZG9iZS54bXAAAAAAADw/eHBhY2tldCBiZWdpbj0i77u/IiBpZD0iVzVNME1wQ2VoaUh6cmVTek5UY3prYzlkIj8+IDx4OnhtcG1ldGEgeG1sbnM6eD0iYWRvYmU6bnM6bWV0YS8iIHg6eG1wdGs9IkFkb2JlIFhNUCBDb3JlIDUuNi1jMTQwIDc5LjE2MDQ1MSwgMjAxNy8wNS8wNi0wMTowODoyMSAgICAgICAgIj4gPHJkZjpSREYgeG1sbnM6cmRmPSJodHRwOi8vd3d3LnczLm9yZy8xOTk5LzAyLzIyLXJkZi1zeW50YXgtbnMjIj4gPHJkZjpEZXNjcmlwdGlvbiByZGY6YWJvdXQ9IiIgeG1sbnM6eG1wTU09Imh0dHA6Ly9ucy5hZG9iZS5jb20veGFwLzEuMC9tbS8iIHhtbG5zOnN0UmVmPSJodHRwOi8vbnMuYWRvYmUuY29tL3hhcC8xLjAvc1R5cGUvUmVzb3VyY2VSZWYjIiB4bWxuczp4bXA9Imh0dHA6Ly9ucy5hZG9iZS5jb20veGFwLzEuMC8iIHhtcE1NOk9yaWdpbmFsRG9jdW1lbnRJRD0ieG1wLmRpZDo3YmI4ZTJmYi1mODQ4LTQxNmUtOGUzMS0yZDE3Y2E2NWI1ZjUiIHhtcE1NOkRvY3VtZW50SUQ9InhtcC5kaWQ6NTczMUE0N0UwM0U3MTFFOEEwRTRGNUIyNDY0NkM1N0MiIHhtcE1NOkluc3RhbmNlSUQ9InhtcC5paWQ6NTczMUE0N0QwM0U3MTFFOEEwRTRGNUIyNDY0NkM1N0MiIHhtcDpDcmVhdG9yVG9vbD0iQWRvYmUgUGhvdG9zaG9wIENDIChNYWNpbnRvc2gpIj4gPHhtcE1NOkRlcml2ZWRGcm9tIHN0UmVmOmluc3RhbmNlSUQ9InhtcC5paWQ6N2JiOGUyZmItZjg0OC00MTZlLThlMzEtMmQxN2NhNjViNWY1IiBzdFJlZjpkb2N1bWVudElEPSJ4bXAuZGlkOjdiYjhlMmZiLWY4NDgtNDE2ZS04ZTMxLTJkMTdjYTY1YjVmNSIvPiA8L3JkZjpEZXNjcmlwdGlvbj4gPC9yZGY6UkRGPiA8L3g6eG1wbWV0YT4gPD94cGFja2V0IGVuZD0iciI/PgodpgsAAB7HSURBVHja7J0LlBxVmce/6sc8Q2RUzKIoEleR+GA1eggiq5gHB/e4ypEoHF1FXYMc9ehCYhDXFcWFQdGz0QUlsmSPri4LCeqyCoQIi4s4ilkDbAbcLENiOoS8k8nM9Lvufl9V9Ux1T89MP251V93+/8656Ud6qru/qr6/+92695ZFX72bgIH09tbz6i95t18O5LOk09gfAIDwUSjW/ScJRK3jEWFe43v8ZYQEAACqE0MIIEzf42tIqa8jLAAAAGmC2YXpYlmrIU4AAIA0wVzChDgBAGBWEnUOGAGmC7NcnHK7BiEDAICSNPXxUi7ncXkTl9O5vJzLC7n0c+lGqGvmVi6ruKi2CRPiBACAQKT5Mi4f5nIxl0UIZ9NsCI0wIU4AANAmzTO5fIHLewnnRfWg1H/Q+MS3+PZ13jOH6YR5qbYKE+IEAICmpPkiLl/j8iGpShE+bcK8h4X5Rb61vWeOhEaYECcAAPikWXtH4Eou67mciLBpFeZmmpi4ukyYRClNHbR6hDllztVkNyBOhd0MADCDWrpWu7jczOUOCFO7MH/Bwvy8T5hHHWHOm6dLM+PalYXpKACAjs40Z2cel01cViBU2oX5EAtzLd8WvGeOcdmtUZjCjVwOcvke6Rwpja5aAAAyzWn0cdkMYQYizIdZmFfybd4nzD9qFmaJfybbvpRvs8g4AQAgGGlKl6xc/uRshEi7MH9N6fQVPmGOBihMby/HfsjivNB7L4gTAAA0S/MfuLwD4dEuzN+yMD/LAitlfce57NIkzC/R1CW+qonzHioWz+d7ByBOAABojGrnud7P5XKERrswt7IwP83CzPiEuVOjMK/xPa5+ea94fIjF+Xa+/Rm5KzbpFCfOcQIAOi7TfDGX7yIs2oW5jTKZT/mEOaY5w/QLc/bLe8XjwyzOc/nedmScAADQnDSl0sO0Er3CfJyF+UkW1YT3zLiXYdoBCLM2gcXjKSoU3uacX4U4AQCgIWm+kcslCIlWYW5nYV7OwhzzCfOZQIVZq8ASiUMszmXOakQQJwAA1IT/nObfUbBL4+3hyvQRsu3fcxlhkezlMu4bRWo6E4FnmNUFNvO5xmRygvL5d7NAb+PXfFCzOHGOEwBgrDRP5fKuALZvc+V5H2c0t1M2+xh17oJqaS/DLLZMmLWLM09jYx+i/v6D/JrPQpwAADC3NCXL0Hu1EqWGOIsZpFzumYr/yZE7clS6KrPeYzvQeYrmEMzlvST2Y2NXUF/fAYrFrtV2LCg1j8bHF1A8vg+7DgBghjRdVX1A4zazZBe/Run0Rn/1Se6qNwepf95E9QoWOyMQYU6Zc/bF1vudRst1VLRFnDdJDtpcH4P9XUpPfIfvLaAiJ9gxiBMAYEam+VIuZ2ja3hEq5D9J2ax/OoMMgtnDlXIW4W6XMGvMOIVY7HssvIN8+wNRaZPCBAAAo5BuOF0r/xyhfO5SnzAlc0mxLEcgzBAIs1ycs49ujcV+zOJ7F7mXKWtWmPuQZQIATJLmmzRsJ8MZ5qcpl9vpPZYrdzzNsjyMEIdImPWJ80EWoDSonm1KmP3zIEwAgFHSfFXTW7GLN3CG+USFMCcQ3hAKsz5xbvNWD9oBYQIAgCvNVzS1BRklm07fVao6SeYiojs23MKsR5zxuMyp/XPe0VshTABAp5PgyvCkZnJMKuRv8D1+lvr7JzAUNgLCnBQnsTjt2QcHxWPPUaGwlAX6Y37dedOFma4QZv++8mMAxwMAwJxMc34TWeZ9lMuNeI/GuLLEOcwoCbOejDOROMbivIBft2luYQIAgLGZZhMUi7f7Hu1BOCMozHJxzp5xJpNZymbfT11d3+HXFiFMAACkWTt7vKXxhKNcYeI8ZlSFWY84u7uLND5+Gd87hcsAhAkAgDRrQalf0dTJqkMIZcSFWY84+/tlv+9mecpIaXtSmOk09iYAwHBpNjpGw7a3efdy1Nc/jrEeBghzypyzL7lXoq9/r9uAKjWksEMBAGbT+MLctv1/3r3jCKNJwizLOHFdTAAA0CLNYrF0DmscYTRMmBAnAABozzRLssQAIBOFWUIu7zUxvgC7DQAAmpGmUnnvXg5hNFSYMg8zk3Yv7wVxAgCAlosN2wij0cIEAACgTZp9/Rgzab4w9/F+xjxMAACkiRBAmBAmAABAmhAmhAkAAJAmhAlhAgAApAlhQpgAAABpQpgQJgAARJ9E0+uFYuxsdIWpqgizl4WpcCwAAEB1aQII0y9MEE16exfyv4u5LPQV8p4b8L3yCJetFfdHnJJOb0UgAYA0IUwIU6SiYysv5vJVlstHQyLJlZ4Ul1WIcTYGvNeXWFkRozs9kd7J33PEsH33Cy6vrvH1W3z3R7xyxGtcbDH8OBf+hL/nc5reT2L/AJfTDahJroI0IUxkmLVxqlfpPtPGClGEt8onyyBY6ZVBfr+tnkTDI9Dm9t0r6vibZXOIYsQT61bnNtrxqRavH3J5a5tij0wTwoQwI86fehXkqa407aTTEqfY7hZmlWs9mQ208Hsv9ooIdD3f3hBBOfj3nU4Weg2Y0j4ypYEh8bqPJtcUt9kRsULIYt8+bPtkjJ6FMMHsnMHlId8PP+a1mpMtkWVv7y1872mvgh5oYxxWOZ9DPo8r8Sjuu6AbGINejO7nsirCx/pLuRxgQ3Q1EbtWxr6lQJoQpg76DN3PZ3L5T3LPyZSCKX1zXQHLcoCLZJa/K8tmwkFJnmu97uII7buWIV270rh4OkLy9MeryGXMy6YTEYs9pAlhhl6Y87nca+B+fhO5gxdeVB5PsgIW5mJPloNtziznQj7fVv68yyKz71rPwojIszJeRVJKumSlN6UQ0dgHRRbShDCbQSr1zVzOdR/aphxP55B7Lub5LX3XqewyKt2fp3GRrsjPd/y+q02e94ewa7tavCTTzPjuRzn2OtlJtv0EpAlhNspJ5I6KO8t5lB6Pe5Vo1DmP3IEQz2uhLAecCtXN3qLIdfz5HwhBd23r9119LPOy81UhP9Yluxwnd7mSoiGxb7ZC3UaF/JVkF/dCmhBmI5xM7jmLN1RkHf0R388XcPlZS7+HK5r7abYpDtFpbDzYRnG2ft81xole1vn1EB/rLEqV96RpGxT7ButT9TBlM5dRsbCbpXkMy+iZKMxshTB7mlgabzov8yr5V1U83xfq42Huz/UeLv9G9Qzyafa7yvlL5cRywJDfigwAeYZ6epdTOv1oqPdd+1nNcXoz317IsTrSwljVEq+itx1XmmrW93sl//uTiMW+HmE+QLn05/hWGhEynmEcmWYnCFMfcj7moSrCjDoXkzvHrnU//KkMc8CwWEr33G3U0/1CY/edPt5G0mPT2uy8xnhZCU+ac2n4PQYL814W5mpPmMIolxFIE8KsFVl+7JdcXm7Yfr6Uy79QKxf6MFeYJV5LVuwh6kqebNy+08/rnd9VaxoZtcZLRNlT4zaj6JC583GlfsrC/DzfFn3C3EkGjXaEMIMV5uvIPYf5EsP28+VOVkQUb/H73kHBLYMXFhZRLP5PZNlxw/ZdMI0Msr4fYKzqjZd0Q87z3Tcuh5xDmHdQduJLfFs6n3uUy67S3yUIJzUNEGamQph9+zTulzeSO63kBdE+HqZ9riu43Fh/paCa+669vYP8d8uoE7DoAurm75tNX0XKKrZ/33VkrBqJVxdvZ2BKmqpz6n+lfsD74Bu+Lybnm1P+L4pM00hhauMt5E5UfoFh+/lqLt9oeaXb2ytrx67tqF+UZa2mru6LI7/vohmrRuOV5M9S+s3HDYvyzOdplbqVhXmj7/8Pcdld+XpIE8KcibeTmfOu/t4rrcU9jznYkb+sWPxqstRJkd13rY3VICUTr2zzsS7nPOd7ojXtoh4zCNO+iYX5bd8zB7jsmSk4AMKs5Hwud5FZa8pKBSCtyCva9P6SYbZiNZhRbjEP8UHyJNlqmI+VFBXyqakcomsRh2I+xaxFnE2cxfeXtOAzLaLuni/wMfu3pKyxtu47Za+rMes7y7uzpMXHySkUj3+S91mjsdIRL/FCf43SlKu7XMXHHL9ezdfzS419RmNduW6GTDPm3Vpk27+nfG6b7zX7uTw3c3AHNzfWKZ2ZONO57el7HMI0Spgf5/KPVO8w8tLxoKxwHg+9vTeTOxii2R0wRJn0ZSQLWitrpMb3Lq0nGyQp/vFvoFxmY33VY1Iq6RVcUX3Eyy6Ck3khfyHlCw+0b9/5jtN6kIZGLLaEY7TcaQC0gkJ+BZcH6j6/2dsrorupyXjJAJg8x0rWkS3wZ3hqbtE5PQl6Rkv39D2mLY6z729F07utn/OkOWuLotOJzrmR4IUprDd0P1/exvcOslt2lGW5roosS1eqmOCSJrk+orJyvkpOrtYS54p5L5enKBbfSMnkRVpb+eXMp3jicn6vJ/hzHAjBvttb4+tO4Czkt3w7TDL61GlkJD7CmehFgR4x8cQqjpVkP/XGSkbIXtrku8c8N1hU+ym8dB0xbQe1fDb5rYzPnYZj8Ow1vowz3MLMVQizu29f6OIf3RWBgtmmXAVEBbVEHme9+dwasoujvidzTkvZtg7P/qdW2rs35lbMxRRli3+gRNevuML+Jkk3of726UUUT95KxfyD/Plybd13ds3innpdjBsabiNjB3+PDZRIfDG47luOVSy+TpZtqzNWl2r6AHFPmvGa4u92JY+F9rc60/6O1f9mGAhUEqdSN0ZOmCAKrAzmmFAbKZu+zCdMySxTXDk8Nacwq1cqOadiKeTuYim8w8usAsig4rJOaTQvG2VzQ0NiZFs7WPxbOP4raz5H2giJ5EVk7iW2IkunSfO0GTNKy1oTSnFCmNHFvQyU/itaiDBz6Wt9z0gLvzFZThdDkfKFHSxjyY6360+gYu8luXRUTEV76TW3kZHi3+bn+Df6hWCSzclYtXPah4UfcmdLczm53bHRECeEiSxz+kExVCHMw1x5jziy00k2t5d/C28nd56aTk6hZPcKMmUqk8gzk72OY7U6gK2fQgkZ7Wzs9SkhzQiw1LuV7tivh1qcECakOZ1RKhQqhZkK7NNnMgf5378OIIOS6RxmLZiRyXyDf7T6u2pj8eVk3uIikGaEvutSnxxXh1acEGb0cbtmF2s+LjZQcXLO5VigwiyRTssSil/TK01LMs0uiinDFs6wvkzuot46Y7XEi1UvflSQZqv5s2kttjCKE8I0Bd0jZuX82W3efXfQT+uQKTNHNW5vvtfteIJRe9y9Lub1mrcqC9/L/NkT8ZOCNFvN8hnkGB5xQpgmoTvL3OR7tL+uaQh6ZHCL3ponJhnU84zb6+m0zHMe0brNeEIaGPPwk4I0w9PyD4M4IUxIczYK+dLiBbk65hjqRPOiF5ZcZi5uaLej3lhZlkizt82jaEGHSVMuqHrOHAdm+8QJYUKasx8gQ775mIfalEFJ9rRVnwgmF08wMYPaormBUerGxnlNSLNlvLWmA64d4oQwzcNda1bjMaJ+43t0uI3fTKMMJlfS6TZu/6fT0rg4orGBsQjSDA+dsoxeHYMyWJy2ciU5/f9EnO5rdAkzXyHMrhAujWcCqqXvNaB1e3K1Epcx7fMx6/teWwPYaleo9p3eWOkeDJYwMlYR+w6dkmkura9lN0vGKeIkDRnnTMIEJqBXmnJ5L5fjbf5emge4dJk8wEVjA8NCpglpthSZZvLG+o/TAMUJYZqO3utmTs3NTLf1W2XSejNNy5pv8DFwROO25uMnBWm2knc0/D2DECeECRonZ+S3wsT9WkGcIM2WsLSpv9YpTggTNEMr52a2FkylQJwgzRCxvOkt6BAnhAkAAJBmyJFLgek5v9SMOCHMTiOIATPtp0f3VBo7ZfAxoPO89jB+UpBmdLLMZsUJYXYiRzQfd2EZCKJ3VPDUACdIc/bWxSh+UpBmq1iqfYv1iBPChDT1HHNuptn+ATOLA9quiedqdc7RLEkzjZ9W+0kY/N1igUhzSpwzL4Ags3OVmgdhdigyNaNHo9+smPSYyBVO2j0QROP1QdXQ5F3TBjhp78ZWT5Zyc/y4kGkGyfRLgbUy48xnroEwOxqdcxoXUTwpa7W2L9Ps0Xx9UEUmd83qv/g4pBmiTNPcZfSWB/8WXsZJVTLOJEsyPzF1v1OWxlMd9LnUrP+3VatkrPgKovwO3u6BNsVPrwimsqexOfeNithxqjtWtl0aCDRhXKwi+B1MzjSXteZtZB3aGTJOkWUSGWaHoncErRX7CItzAcVVV5u+zyq9ldikCEzrmpU46Rw5O0rF3DAyzfBgqjTnvhRYq8QJOpU7NW9vPsWTF1E7Ltzc07tWswhSPhFMGCRMGV28VnOKNOR7gIFAISBBZvbP1nYpsOYocHmSlPofjsFjZBe3kV1YQMneDs8sTe+fVbVtMzMxwpXoiFbZWNZnWJy/IsrfxTlHa7IO51ym0isCVSkCU/oc1SDpXndY2b+ZzDKLJsUqut/B1NGzQXTNHnHkqJwigtzOB3S24jULKM/HdceLM3QZwLI2vfOd2jOPWOIa5/grFna06DvcQdqv2lLc5N3LuSIw4hiTbtlV2rdbLGz27o3hhxyaTNNImp1qYpOck5LKyc0iuRR2zdKEkR/+hFfGcVhpqYQGvAr7fZRJNzvvUeOoz7ILQs/Feu3SdEfS/oSs2DLK5fYGvA9uIf1zM1NUzA8bJQJXmLcEkB1t5gZGaeTscVQKkGZQNHIpMBadeoL1x1mkLYKU25l+0AWfHCccYSZ7bRxKWiuhhZ4wpcK+nx8vb1Kci9vyPTJp6aLdEkDPxyKKxTdTd895lM0cDFCY+jMnZW/yPTpkwLE6GEDDyGu6l8XqGCoGSDMoarkU2K6prlZburpG5Nc8U9VXJslkbxaHTaCVkCvKqS5BefzLhgXhbk/nFIB6W/43UDCnC15LlvUgf7+PspwfDSDDD+Izj/JvbaN3P9pds26X/2CADTIZLDU0KcwiRs5CmsFR2TUrktvudrXaXldrcaasxa7IIkWSOFjbJ0wdgtDbbaZUfZPyM+ktAWWbblzcTPwGfp/rNcR/lSeCgUD2r7I3+LobD0X0GF3pZeDBnieXWJmUkUOaoeY15AzAUP/NctxNdkFGuBZmeG22QpJZlqTCYREqYTYuiCDOyU21/utpTAWVbQoyBeU6/q4f9xoI6+vqynYzSxGB7mkls2WZErvDETouS2VlYA2KcoapkPVn5BgEFCppmjfj5Fzn30LmJVS+jJ5kkekySSZ6CxH4PtGikfhJ6105Ff5cFZIriG6ntf9dp3FUTRBuNrCWt6m768x/iaZczd817WSbd5L+5dX8nOZliYMcH8lspciqRCPOudWp2Cz05OiKQDkyD14Eyl7nyzL3U6GORofO32Six+15SFhziWixE5d21AequM73aH9dnwEzTgLfpskLtssCB8fIP2AngSwyhC35RkYevsH7m1v470UMfnEG123mn19YqLv1fxW5Szue2IKoLiuLQ0+7L47CcStmQ5JlWkvC3ehUt/l6M9J8nB1GJRG2TNPYb9b7NHavkcKslhG0iMmJ5vUPYHFH0g562WAnMUp24Vrf4711ZZmdRYrs/IayWIHQEUMIQISF2doKbSoDaOwcUyYt5zY3ddR+lm5Zu5CajBsyp9kaF2t8XdgHGujNAJAmMFSYayMmzMr5hc1MNJcBO491hjClq7GsWzaFg3+2xkXev4j9fgQF0gSgNKI1al2UkgVMjWZsJgNwBy59jIyfrC7nMTP+AS3SLZvDD6CqMK+taFzsQhc2pAlAcOtzBl+p6Z1fmEnL4KXlBotzmIp5/zVmD6BbtiZhlhoXuJoJpAmAIwtZi3VrxD51ypdl6hv56SzSoN5JUysMGSTM3GW+Roacx8SAltqEmULjAtIEoBLJsI5G5tOWD87Yr7XbLJN5hGvOC8wRp9pcIUzJmHbhkJ+GdPdfAmFCmgDUkmHJOT2ZQxj+rknJBMoHZ+iv1EScyj6byhdOiKIwN1Ihs6ZCmCM4NzctTkN8TF3iO64gTEgTgDnFWTqnF+IMiyVQngkENzgjmx1m2XBDQt0ZyaxJGheFjH8u5jEIs2qc1nGcLvNNwZH47IAwo4WJy+iBtrqmxtel049ST88FRNb3SC51FTphlkkgRfmAB2dkcnspSR+kWPfDZMXkvedHYG8Pc8bE2WXBP5XkMMcq1ZZjKswNMLuwoSJOY95xlQt9rLCMXoU0AWhbxpl5hLq7lrEkNrA8zw9H/SZdsmUZpkigNZmAVKDJ7E0US/6OrPjfcEwuCnHWtIHjdJvvOcma9rYsVtGQ5ZCzGlK5LCVO+zlOBxCfqGaaALSTrJNhXcgZ1pUszzVtzLBSpIoszNxQoFnT3OLkSjX/CCXz2ynWdR/H5GPhWi9V3eYs9TZ17tLpNyDpvs5jHqbToHAzy00VsnSPJ1eYiBOkCUBTokhzhnU9Z1f/zlnWZ1gSH21xdrmOK7iNFSJItTVrytMxSua+z/fuZXm+k+X5Xo7LirZmltNjhKxp6iDaTEr9pqKXokQwXbEA0gQdLU6ugIuPU7K4hqzEHRRLvM/rngwq85wpI8h5FdxYCGLifpZk7kckl/qyEq/muJTkeUoLRDDEIrif47O5QpbCAU+YHTrYx7nizTDH50kW5eYqLyjN6T0EWUKaAAQpisOULGyhYuFxfrSOYt0ryLLO8kShQaBeRlBdBHvJ7ZIthiwmY062kizs57hsd+OSXEQUW+LFRlf37agnypni42aWYYyRfoY5FqOT95U67jRgyE5VTBepREYOH8e5XUgTgBZnnSTnOg9xK14ymnu4XOuJYpEjT0cWgrVoBpmWKj2vwlPDFecro5cRTMqTurjilrhs4+IOximPzRlTMZkm1FEnFi4pjs0e97Y4XOUcXAl536OOENohy0zacm6T9PoQ7hWJjXtx+3wI5h6HO1ZGfAdIE4RZEjkv+xOBPo9FIXJ7gkt8UhaN42YE7RKBvrjIFabncWzGSN8CCUVPBtGMj17SXjxK9wvkduHnAp+GBJBpAtCEKI55okt5ouj15HmC94rS45kqvVKFlw7F+Up9cUl73+2A1zr3x6bPF5N5VcRYqvRFAlnvNh3ajDtPj+OH0EGxCul3gDRBlEVBk7IA1WIDANBME8voWUmEzzi6EAIAAAhCmlasH+EzjnkIAQAAzEwTa8/GFhAVj1IxbVGsFyvQmsHLmt4CjgQAADLNqn/6iua3AULGaxACAACYLdNsNDWw6A38pz8n5zyYwsADMzin+U0g1QQARAWrlZmm9RbvHbsReGOOnvMRBgAACESadApZyTP5FgOCzOBsLgsRBgAACEaaMoL2YpqaXA6izaea+Ns8wgcA6BRpjjZhzfPJSpxOdgbZZrR5NZf3NfH3EwghAKBTpHmgqb+3Elfx7QsQykjzLaq+BF2tlBpeGAUEADBemk83uY0lFOv6MGebGBAUTeSCz8ub3Ebp6hg2wgkAMF2a/6thM1eTlfwLhDNyyOW1vt38ZtRO704RIQUAmC7N32nYTg9Z8VtJ2W9GSCPD6VzuJvdKGM1K8w/eHVyhHgBgvDQf0LStAbJi93IFeg7CGnoWc/kll5O0bE3Zj3r3sggtAMBk5NJgu7k8yeUMDdt7PpG1hW+v5HIzwhtKVnFZ5/QO6OGPpAqlc5ppDAUCAJieaQo/1LhNqYxv4iLyPB0hDg2yLzZzuUWjMCXNvNf3YAxhBgB0ijR1j3xcymU7lx+Ru9qMhXC3hbO9/Sv7Yrnmbdukij/x7mcpq3BOEwBgNAnvdie5g0LerXn7MvfvEq88w+UeLg9zeYqkW8+d34fVZPQgFwWfT+7lvWSxgrdyuYDLacG9pXqIVGGP9+AYdgEAwHQs+spk75oMDnkUGSGo1ZicZV5CKv+k9/gpZJoAgEjR3dxVTrZy+VdEEdTozHt8whylWA+ECQAwnsoF29cQutnA3BwnVfim7/E+hAQA0InSfJbLJxAWMHuSaX+VVLG0ZvFRzjJxEXIAQEdKU7idy3qEBsxgzI2kcqUT4bJs3l7EBADQydIUPk3uijEA+Pkt2blB3+M9nGVi9DMAoOOlKYM6ZLrCVoQIeDxGdpYbU6okyUMszKMICwAA0nSZ4AryPL79L4Sp01G/5gzzE3yb8Z6QlX+eRVwAAJBmGdZxUvYKrixvR6g6VpgbWZicYdoTU40p2slZJlaZBQB0HIm5F9iOZcjOfICsrof5/vX8xAkIW0dwnEX5FVK5zeXP0S6yeuyqxw00CgDo7EyzlHBKJZm7mVThXK4Z70b1aHZq6exjlf/LCmEecjJMORYAAKBjM81asZzuuMdIZf6KrOQy9u0qfnJZzeIFYYdlqLbwza0szD/4npdpJXt4/2PQDwAA0qz7L6yeYyzOn5JMP6D4IrIS7+InZaTtQoQzkjzDsvw5qcLd7MfKOZdHSOZhWj0FhAkAABqRpitOqUR3szwPkirKFUvWs0BPJiv+Zv7P13A5lZ97CZcTufQ1/D5AF7K/ZADPUSdrJLWLy3bed49WEaUgSynu5/2MlX4AAMDH/wswAAhEHK81Ak0FAAAAAElFTkSuQmCC;" vertex="1" parent="1">
          <mxGeometry x="252.66" y="231.04000000000002" width="84.69" height="27.92" as="geometry" />
        </mxCell>
      </root>
    </mxGraphModel>
  </diagram>
</mxfile>
